<?xml version="1.0" encoding="UTF-8"?>
<svg version="1.1" xmlns="http://www.w3.org/2000/svg" width="200" height="200">
<path d="M0 0 C6.69045549 3.77135355 12.97301767 7.97297766 19.125 12.5625 C19.93759277 13.16602295 20.75018555 13.7695459 21.58740234 14.39135742 C57.32970371 41.11974702 57.32970371 41.11974702 60 55 C62.20579712 76.98564998 45.61847273 93.85709768 33 110 C32.06107315 111.20823638 31.12226497 112.41656501 30.18359375 113.625 C24.23027566 121.26466108 18.13680738 128.78750696 12.015625 136.29296875 C8.9388936 140.06782241 5.89968575 143.87162706 2.87890625 147.69140625 C1.24160879 149.70313763 -0.42746296 151.67692711 -2.11743164 153.64428711 C-2.65735245 154.27314316 -3.19727325 154.90199921 -3.7535553 155.5499115 C-4.16488205 156.0284407 -4.5762088 156.50696991 -5 157 C-4.2947821 156.99111755 -3.58956421 156.98223511 -2.86297607 156.9730835 C3.78739708 156.89289077 10.43763505 156.83201219 17.08838272 156.79275131 C20.5075368 156.77188799 23.92629094 156.74359495 27.34521484 156.69824219 C31.27696931 156.64641382 35.20856257 156.62704422 39.140625 156.609375 C40.36678528 156.58872986 41.59294556 156.56808472 42.85626221 156.54681396 C43.99714294 156.54651184 45.13802368 156.54620972 46.31347656 156.54589844 C47.81905121 156.53257477 47.81905121 156.53257477 49.3550415 156.51898193 C52.72392235 157.13165414 53.8986215 158.35347096 56 161 C56.49609375 163.21875 56.49609375 163.21875 56.4375 165.5 C56.43556641 166.62921875 56.43556641 166.62921875 56.43359375 167.78125 C55.88410318 170.5930576 55.02793361 171.98111966 53 174 C51.00390625 174.4609375 51.00390625 174.4609375 48.5625 174.375 C47.57121094 174.34019531 46.57992187 174.30539063 45.55859375 174.26953125 C42.25127865 174.01903208 38.96346632 173.69560411 35.66670227 173.33695984 C26.72518953 172.37143127 17.82557346 171.71445874 8.8359375 171.3984375 C7.58566772 171.35440292 6.33539795 171.31036835 5.04724121 171.26499939 C-3.68688243 171.00080533 -12.38886541 171.01478367 -21.12405014 171.20961571 C-23.15841301 171.25395339 -25.19279571 171.29190382 -27.22732544 171.32771301 C-28.23711551 171.34571064 -28.23711551 171.34571064 -29.26730537 171.36407185 C-30.62739313 171.38827064 -31.98748404 171.41229263 -33.34757805 171.4361372 C-36.79811907 171.49989183 -40.24661839 171.5828113 -43.69580078 171.69946289 C-70.54694077 172.57946292 -70.54694077 172.57946292 -77.98828125 166.28125 C-79.7082253 164.56903706 -81.38828233 162.81445497 -83 161 C-84.22611687 160.01514745 -85.47569946 159.05757936 -86.76171875 158.15234375 C-93.47223484 153.07242036 -99.8642062 147.76851037 -106 142 C-106.6703125 141.39414063 -107.340625 140.78828125 -108.03125 140.1640625 C-113.88445969 134.68287885 -117.50676085 128.44180248 -118.23828125 120.37109375 C-118.83889679 96.63097437 -97.91539018 77.21863224 -83.76611328 59.890625 C-79.60540786 54.78267676 -75.58805568 49.58303407 -71.59375 44.34375 C-68.10059639 39.8026503 -64.45513768 35.38464747 -60.82299805 30.95458984 C-57.81718066 27.27701949 -54.88533227 23.56264809 -52.03955078 19.76000977 C-38.73813511 2.03625713 -22.43822508 -11.60905839 0 0 Z M-34 18 C-39.63043871 23.82380731 -44.58557282 30.17918756 -49.44921875 36.64453125 C-51.15589641 38.91196501 -52.90813084 41.12931356 -54.70703125 43.32421875 C-55.34813843 44.12508911 -55.34813843 44.12508911 -56.00219727 44.94213867 C-57.1839751 46.41756899 -58.38063456 47.88104356 -59.578125 49.34375 C-61.28739703 51.88210195 -61.28739703 51.88210195 -60.5625 54.52734375 C-58.63211408 57.58217946 -56.45684942 59.6632471 -53.75 62.0625 C-53.22204834 62.53292725 -52.69409668 63.00335449 -52.15014648 63.48803711 C-50.44237558 65.002532 -48.72223542 66.50198647 -47 68 C-46.43104004 68.50015625 -45.86208008 69.0003125 -45.27587891 69.515625 C-37.67366849 76.19472523 -29.88166515 82.54135712 -21.80273438 88.63574219 C-19.07264937 90.70179243 -16.35838804 92.78836094 -13.64233398 94.87280273 C-11.4693207 96.53811388 -9.29172605 98.19727178 -7.11328125 99.85546875 C-4.51090436 101.83797266 -1.9253007 103.83880187 0.64453125 105.86328125 C1.19488037 106.29116943 1.74522949 106.71905762 2.31225586 107.15991211 C3.77295723 108.2956582 5.22659943 109.44046696 6.6796875 110.5859375 C7.44539063 111.05257812 8.21109375 111.51921875 9 112 C12.65199315 110.78266895 13.44819435 109.50171884 15.8125 106.5 C16.99779297 105.00919922 16.99779297 105.00919922 18.20703125 103.48828125 C18.64740723 102.93350098 19.0877832 102.3787207 19.54150391 101.80712891 C21.12883652 99.84036694 22.75335075 97.90915041 24.38671875 95.98046875 C38.86352896 80.02063234 38.86352896 80.02063234 46.3125 60.5625 C45.57820263 52.19150994 39.67498879 46.01366378 33.50195312 40.71386719 C30.03027125 37.87971235 26.4618678 35.17462977 22.89404297 32.46337891 C20.98663939 30.9896773 19.11679977 29.47870634 17.25390625 27.94921875 C-7.36926436 7.15182282 -7.36926436 7.15182282 -34 18 Z M-73 67 C-74.67592658 68.72868723 -76.21533534 70.46310226 -77.75 72.3125 C-78.22590576 72.88137939 -78.70181152 73.45025879 -79.19213867 74.03637695 C-83.39398398 79.13154387 -87.3786849 84.38378052 -91.3125 89.6875 C-91.88645508 90.45811768 -92.46041016 91.22873535 -93.05175781 92.02270508 C-103.14439777 105.65583047 -103.14439777 105.65583047 -105 122 C-100.70973882 132.92066482 -89.32762086 140.90685521 -79.95703125 147.4831543 C-78 149 -78 149 -75.73046875 151.29223633 C-65.8686508 160.3838234 -55.45950906 159.03709181 -42.75 158.5625 C-40.63680454 158.51727976 -38.52351554 158.47622852 -36.41015625 158.43945312 C-31.27109798 158.3410407 -26.13659689 158.18617777 -21 158 C-20.69489502 157.21713623 -20.38979004 156.43427246 -20.07543945 155.62768555 C-17.63181061 149.53429272 -15.15931726 144.04425449 -11.1875 138.8125 C-10.76098145 138.23226074 -10.33446289 137.65202148 -9.89501953 137.05419922 C-6.214962 132.11780372 -2.23413304 127.47067679 2 123 C-2.03625027 118.75048406 -6.41871579 115.19134126 -11.0625 111.625 C-11.84689453 111.01922119 -12.63128906 110.41344238 -13.43945312 109.78930664 C-26.38335079 99.82173802 -39.46030271 90.03870971 -52.73828125 80.52050781 C-58.17641943 76.61827623 -63.51857817 72.6071555 -68.8125 68.51171875 C-70.83105067 66.81049258 -70.83105067 66.81049258 -73 67 Z " fill="#000000" transform="translate(131,15)"/>
<path d="M0 0 C3.125 0.375 3.125 0.375 6 1 C6.15082031 1.90492187 6.15082031 1.90492187 6.3046875 2.828125 C6.93847546 5.51955333 7.59154317 7.60976591 9 10 C11.57279415 11.45034964 13.97610306 12.27171519 16.8203125 13.05078125 C19 14 19 14 19.86328125 15.9765625 C20 18 20 18 19.0625 20.0625 C16.86744025 22.12452582 15.81869915 22.40885383 13 23.1875 C10.17236046 24.10232456 9.252617 24.5346529 7.8125 27.1875 C7.07755689 29.44886343 6.46896601 31.66982514 6 34 C3.03 34.495 3.03 34.495 0 35 C-1.79049458 32.23287202 -2.96137082 30.21031441 -3.5625 26.9375 C-5.63046728 22.71165383 -8.58247818 22.16247928 -12.8828125 20.6640625 C-13.58148438 20.44492187 -14.28015625 20.22578125 -15 20 C-15.125 17.625 -15.125 17.625 -15 15 C-12.6870518 12.6870518 -11.52095125 12.50419025 -8.375 11.875 C-7.55773437 11.70742188 -6.74046875 11.53984375 -5.8984375 11.3671875 C-5.27195312 11.24601562 -4.64546875 11.12484375 -4 11 C-3.87882812 10.37351562 -3.75765625 9.74703125 -3.6328125 9.1015625 C-3.46523438 8.28429688 -3.29765625 7.46703125 -3.125 6.625 C-2.96257813 5.81289063 -2.80015625 5.00078125 -2.6328125 4.1640625 C-2 2 -2 2 0 0 Z " fill="#000000" transform="translate(24,12)"/>
</svg>
