<?xml version="1.0" encoding="UTF-8"?>
<svg version="1.1" xmlns="http://www.w3.org/2000/svg" width="200" height="200">
<path d="M0 0 C1.0545488 0.41793823 2.1090976 0.83587646 3.19560242 1.26647949 C5.41642903 2.14799287 7.63611951 3.03237324 9.85473633 3.91943359 C13.26448793 5.28235688 16.67779955 6.63603301 20.09179688 7.98828125 C22.24891186 8.84581618 24.4058203 9.70387092 26.5625 10.5625 C28.10143669 11.1734552 28.10143669 11.1734552 29.67146301 11.79675293 C31.08379463 12.36238953 31.08379463 12.36238953 32.5246582 12.93945312 C33.35705521 13.27174927 34.18945221 13.60404541 35.04707336 13.94641113 C36.94921875 14.78125 36.94921875 14.78125 37.94921875 15.78125 C38.10651992 17.76922972 38.19342457 19.76280548 38.25317383 21.75610352 C38.2918306 23.03997452 38.33048737 24.32384552 38.37031555 25.6466217 C38.49737909 30.8365618 38.58669147 36.0271298 38.6530962 41.21818638 C38.70388244 45.13825589 38.77684711 49.05467186 38.90942383 52.97290039 C39.61086447 74.23924994 37.75861776 89.36293983 25.94921875 107.78125 C24.83297364 109.64077609 23.72188675 111.50341016 22.61645508 113.36938477 C20.06923803 117.66123072 20.06923803 117.66123072 18.94921875 118.78125 C15.85216888 118.94252671 12.7753316 119.04132332 9.67578125 119.09765625 C8.72343597 119.11843735 7.7710907 119.13921844 6.78988647 119.16062927 C4.75710743 119.20402633 2.72427662 119.24505114 0.69140625 119.28393555 C-2.35039372 119.34230342 -5.39197013 119.40774138 -8.43359375 119.47460938 C-12.39164525 119.56157682 -16.34888345 119.62015859 -20.30761719 119.66455078 C-24.06091355 119.71487387 -27.77736243 119.88299185 -31.52050781 120.15966797 C-32.80666489 120.22866554 -32.80666489 120.22866554 -34.11880493 120.29905701 C-35.7092935 120.38565182 -37.29839374 120.51054114 -38.88192749 120.68251038 C-41.27646641 120.78305969 -42.82298593 120.68437017 -45.05078125 119.78125 C-47.91821745 116.77894957 -49.89555125 113.31172147 -52.05078125 109.78125 C-53.34732023 108.03317143 -54.65522112 106.29346741 -55.97387695 104.56201172 C-68.26246314 87.2411874 -69.12057182 72.79414556 -68.31390381 52.18084717 C-68.21149308 49.1005078 -68.18308559 46.02127519 -68.15648937 42.93948555 C-68.12155741 39.24289913 -68.04764303 35.54743243 -67.96875 31.8515625 C-67.95064805 30.80754461 -67.95064805 30.80754461 -67.9321804 29.74243546 C-67.89065184 27.78620986 -67.81755316 25.83073074 -67.74291992 23.87548828 C-67.7065593 22.76730743 -67.67019867 21.65912659 -67.63273621 20.5173645 C-67.05078125 17.78125 -67.05078125 17.78125 -65.26617432 16.02293396 C-63.1725584 14.84950368 -61.11227764 13.77909997 -58.91235352 12.82006836 C-58.10794327 12.4663768 -57.30353302 12.11268524 -56.4747467 11.74827576 C-55.61425217 11.37630569 -54.75375763 11.00433563 -53.8671875 10.62109375 C-52.97466782 10.23055313 -52.08214813 9.84001251 -51.1625824 9.43763733 C-48.31492685 8.19310339 -45.46413404 6.95593976 -42.61328125 5.71875 C-40.69836582 4.88262368 -38.78364996 4.04604013 -36.86914062 3.20898438 C-27.21364961 -1.0058325 -27.21364961 -1.0058325 -24.0383606 -2.35794067 C-22.45568326 -3.04338924 -20.89508778 -3.77976523 -19.34350586 -4.53295898 C-12.9066887 -6.45831511 -5.91184413 -2.37037582 0 0 Z M-22.76611328 5.34179688 C-23.52675079 5.68214966 -24.28738831 6.02250244 -25.07107544 6.37316895 C-25.89195648 6.74502319 -26.71283752 7.11687744 -27.55859375 7.5 C-28.39921356 7.87733276 -29.23983337 8.25466553 -30.10592651 8.64343262 C-32.79745892 9.85255814 -35.48662933 11.06684069 -38.17578125 12.28125 C-39.99724291 13.10060045 -41.81885561 13.91961524 -43.640625 14.73828125 C-48.11244065 16.74870956 -52.58214429 18.76376678 -57.05078125 20.78125 C-56.23911635 24.39364395 -54.87146103 26.99942268 -52.92578125 30.16796875 C-52.301875 31.18826172 -51.67796875 32.20855469 -51.03515625 33.25976562 C-50.3803125 34.31873047 -49.72546875 35.37769531 -49.05078125 36.46875 C-48.3959375 37.53931641 -47.74109375 38.60988281 -47.06640625 39.71289062 C-44.39161292 44.49653787 -44.39161292 44.49653787 -41.05078125 48.78125 C-39.27006879 48.86851223 -37.48594985 48.88824041 -35.703125 48.87890625 C-34.62353516 48.87568359 -33.54394531 48.87246094 -32.43164062 48.86914062 C-31.29533203 48.86076172 -30.15902344 48.85238281 -28.98828125 48.84375 C-27.84810547 48.83923828 -26.70792969 48.83472656 -25.53320312 48.83007812 C-22.70567774 48.81824747 -19.87825485 48.8017641 -17.05078125 48.78125 C-17.05078125 48.12125 -17.05078125 47.46125 -17.05078125 46.78125 C-16.50873047 47.10577148 -15.96667969 47.43029297 -15.40820312 47.76464844 C-12.56013578 48.99283324 -10.42930353 49.03989467 -7.33203125 49.046875 C-6.23503906 49.04945312 -5.13804688 49.05203125 -4.0078125 49.0546875 C-2.86699219 49.04695313 -1.72617188 49.03921875 -0.55078125 49.03125 C1.16044922 49.04285156 1.16044922 49.04285156 2.90625 49.0546875 C4.00324219 49.05210938 5.10023437 49.04953125 6.23046875 49.046875 C7.7319043 49.04349121 7.7319043 49.04349121 9.26367188 49.04003906 C12.12911033 48.76391499 13.62049085 48.46399938 15.94921875 46.78125 C17.69066113 44.24957979 17.69066113 44.24957979 19.18359375 41.1875 C19.75722656 40.07503906 20.33085937 38.96257812 20.921875 37.81640625 C21.50839844 36.64980469 22.09492188 35.48320313 22.69921875 34.28125 C23.30121094 33.11464844 23.90320313 31.94804688 24.5234375 30.74609375 C27.61395283 25.51178082 27.61395283 25.51178082 28.94921875 19.78125 C23.29098032 17.498221 17.63096638 15.21967364 11.96923828 12.9453125 C10.04230724 12.17051007 8.11587255 11.39447205 6.18994141 10.6171875 C3.42609263 9.50197523 0.66050579 8.39117758 -2.10546875 7.28125 C-2.97009735 6.93126953 -3.83472595 6.58128906 -4.72555542 6.22070312 C-5.52623444 5.90037109 -6.32691345 5.58003906 -7.15185547 5.25 C-7.85800995 4.96576172 -8.56416443 4.68152344 -9.29171753 4.38867188 C-11.0556945 3.67245067 -11.0556945 3.67245067 -13.05078125 3.78125 C-13.38078125 6.75125 -13.71078125 9.72125 -14.05078125 12.78125 C-14.71078125 12.78125 -15.37078125 12.78125 -16.05078125 12.78125 C-16.54578125 8.32625 -16.54578125 8.32625 -17.05078125 3.78125 C-19.39112214 3.78125 -20.63522498 4.38219155 -22.76611328 5.34179688 Z M-60.05078125 32.78125 C-60.28186351 39.3235153 -60.43776179 45.86470432 -60.54516602 52.41015625 C-60.59000544 54.62930611 -60.65110331 56.84819671 -60.72973633 59.06640625 C-61.36112801 77.35613136 -58.47670246 87.49884849 -47.05078125 101.78125 C-47.05078125 94.19125 -47.05078125 86.60125 -47.05078125 78.78125 C-48.70078125 78.78125 -50.35078125 78.78125 -52.05078125 78.78125 C-51.05078125 75.78125 -51.05078125 75.78125 -48.98828125 74.59375 C-48.34890625 74.325625 -47.70953125 74.0575 -47.05078125 73.78125 C-45.28511253 57.49786072 -48.40209385 47.63763487 -57.83569336 34.28393555 C-58.43716187 33.5401062 -58.43716187 33.5401062 -59.05078125 32.78125 C-59.38078125 32.78125 -59.71078125 32.78125 -60.05078125 32.78125 Z M29.94921875 34.78125 C20.92933201 48.11421751 19.81484491 58.88601159 20.94921875 74.78125 C25.89921875 76.26625 25.89921875 76.26625 30.94921875 77.78125 C30.94921875 63.59125 30.94921875 49.40125 30.94921875 34.78125 C30.61921875 34.78125 30.28921875 34.78125 29.94921875 34.78125 Z M-40.05078125 55.78125 C-40.05078125 60.40125 -40.05078125 65.02125 -40.05078125 69.78125 C-39.06078125 70.11125 -38.07078125 70.44125 -37.05078125 70.78125 C-38.05078125 73.78125 -38.05078125 73.78125 -40.05078125 74.78125 C-40.05078125 86.99125 -40.05078125 99.20125 -40.05078125 111.78125 C-22.23078125 111.78125 -4.41078125 111.78125 13.94921875 111.78125 C13.94921875 93.30125 13.94921875 74.82125 13.94921875 55.78125 C5.03921875 55.78125 -3.87078125 55.78125 -13.05078125 55.78125 C-13.05078125 57.43125 -13.05078125 59.08125 -13.05078125 60.78125 C-12.39078125 61.11125 -11.73078125 61.44125 -11.05078125 61.78125 C-10.72078125 62.77125 -10.39078125 63.76125 -10.05078125 64.78125 C-10.85515625 64.53375 -11.65953125 64.28625 -12.48828125 64.03125 C-16.84665993 63.72539886 -19.17991694 64.92476473 -23 66.87109375 C-25.05078125 67.78125 -25.05078125 67.78125 -28.05078125 67.78125 C-28.38078125 66.79125 -28.71078125 65.80125 -29.05078125 64.78125 C-28.43589844 64.58789062 -27.82101563 64.39453125 -27.1875 64.1953125 C-26.37925781 63.93492188 -25.57101563 63.67453125 -24.73828125 63.40625 C-23.93777344 63.15101562 -23.13726562 62.89578125 -22.3125 62.6328125 C-19.82353597 61.79293189 -19.82353597 61.79293189 -17.05078125 59.78125 C-17.05078125 58.46125 -17.05078125 57.14125 -17.05078125 55.78125 C-24.64078125 55.78125 -32.23078125 55.78125 -40.05078125 55.78125 Z M20.94921875 78.78125 C20.94921875 85.38125 20.94921875 91.98125 20.94921875 98.78125 C23.63983295 95.1937644 25.31159112 92.08708919 27.13671875 88.03125 C27.93142578 86.27554688 27.93142578 86.27554688 28.7421875 84.484375 C29.14050781 83.59234375 29.53882813 82.7003125 29.94921875 81.78125 C26.97921875 80.79125 24.00921875 79.80125 20.94921875 78.78125 Z " fill="#000000" transform="translate(113.05078125,41.21875)"/>
<path d="M0 0 C5.77378925 0.4811491 9.95859836 2.18467181 15 5 C14.67 6.32 14.34 7.64 14 9 C8.76727367 7.36041242 3.84803364 5.61047965 -1 3 C-0.67 2.01 -0.34 1.02 0 0 Z " fill="#000000" transform="translate(111,107)"/>
<path d="M0 0 C1.32 0.33 2.64 0.66 4 1 C4 5.95 4 10.9 4 16 C2.68 16.33 1.36 16.66 0 17 C0 11.39 0 5.78 0 0 Z " fill="#000000" transform="translate(96,63)"/>
</svg>
