<?xml version="1.0" encoding="UTF-8"?>
<svg version="1.1" xmlns="http://www.w3.org/2000/svg" width="512" height="512">
<path d="M0 0 C10.45561809 7.78428052 19.52965052 17.72635216 28.72591305 26.9266758 C30.1019122 28.29967511 31.47811342 29.67247193 32.85449886 31.045084 C36.55462604 34.73646048 40.25158373 38.43099484 43.94765878 42.12642813 C46.26016269 44.43821755 48.57337872 46.74929197 50.88684559 49.06011772 C58.9652767 57.12933191 67.0411561 65.2010896 75.11458492 73.27530861 C82.63214 80.79346665 90.15528061 88.30600353 97.68100411 95.81598413 C104.1578421 102.27975687 110.6308294 108.74736861 117.1008181 115.21799719 C120.95883372 119.07626768 124.81838395 122.9329717 128.68181705 126.7858181 C132.30685689 130.4011917 135.92708438 134.02131513 139.54364872 137.6451664 C140.87100878 138.97357344 142.20007964 140.30027354 143.5309782 141.62513542 C145.34687941 143.43333148 147.15650962 145.24758179 148.96469784 147.0634861 C149.49250664 147.58615134 150.02031544 148.10881657 150.56411844 148.64732015 C154.45280779 152.5727876 157.28889342 155.77828079 157.99715328 161.3431797 C157.46704735 165.65975658 156.24198574 167.50305039 153.55965328 170.9056797 C150.59871578 172.91739845 150.59871578 172.91739845 147.18465328 174.5931797 C145.53336422 175.43429298 145.53336422 175.43429298 143.84871578 176.29239845 C130.33449085 181.81993396 116.2985475 181.33545801 101.97762203 181.2938633 C99.61406367 181.29793472 97.25050721 181.30327979 94.88695431 181.30979347 C88.50270145 181.3234049 82.11859495 181.31819395 75.73433971 181.30865622 C71.73904139 181.30410797 67.74376382 181.30433719 63.74846554 181.307127 C63.0827671 181.3075867 62.41706866 181.3080464 61.73119754 181.30852003 C60.37834524 181.30947932 59.02549296 181.31045196 57.67264068 181.3114378 C45.02206538 181.31996827 32.37155557 181.31019451 19.72099102 181.2940367 C8.89406703 181.28063565 -1.93276041 181.2829644 -12.75968266 181.29679298 C-25.36864368 181.31289039 -37.97754747 181.31914452 -50.58651733 181.30995619 C-51.93406454 181.30900066 -53.28161175 181.30805755 -54.62915897 181.307127 C-55.29197386 181.30666417 -55.95478875 181.30620135 -56.63768893 181.30572449 C-61.28201588 181.30314705 -65.92630473 181.30762729 -70.57062626 181.31456566 C-76.83508344 181.32327176 -83.09935945 181.31714697 -89.36379719 181.29988289 C-91.65420704 181.29593747 -93.94463231 181.29701847 -96.2350359 181.30367088 C-116.47322938 181.35700448 -135.62625255 180.05825554 -151.44034672 165.9056797 C-152.11710453 165.32173439 -152.79386234 164.73778908 -153.49112797 164.13614845 C-164.61876285 153.87279589 -171.02197115 139.90215609 -172.44034672 124.9056797 C-172.60604691 120.65337578 -172.62805628 116.40307468 -172.64347172 112.1478672 C-172.65202183 110.31604393 -172.65202183 110.31604393 -172.66074467 108.44721413 C-172.6701639 105.87364499 -172.67671637 103.30006396 -172.68058109 100.72648048 C-172.69033032 96.78730437 -172.7214011 92.84864076 -172.75284672 88.90958595 C-172.75937319 86.40568279 -172.76462505 83.90177591 -172.76847172 81.3978672 C-172.78081852 80.22070137 -172.79316532 79.04353554 -172.80588627 77.83069801 C-172.80288517 76.7325074 -172.79988407 75.63431679 -172.79679203 74.50284767 C-172.80043766 73.54023018 -172.80408329 72.57761269 -172.80783939 71.58582497 C-172.36516823 68.35739867 -171.37343167 66.51329822 -169.44034672 63.9056797 C-165.69607573 61.74552336 -163.14215595 60.91777986 -158.81534672 60.8431797 C-155.48928567 61.890273 -153.48861312 62.87209147 -151.36271 65.68375587 C-150.05812336 68.82643533 -149.99145254 71.75712455 -149.80753422 75.14396095 C-149.73389652 76.4089341 -149.66025883 77.67390724 -149.58438969 78.97721291 C-149.51308842 80.42680397 -149.51308842 80.42680397 -149.44034672 81.9056797 C-149.04610697 81.50590919 -148.65186722 81.10613869 -148.24568081 80.69425392 C-138.60297137 70.91840105 -128.94301784 61.15987343 -119.2647543 51.41921425 C-114.58468865 46.70795132 -109.91036538 41.99136618 -105.24894047 37.26163673 C-100.74297693 32.69006939 -96.22214642 28.13368624 -91.69100666 23.58707619 C-89.97231443 21.85737124 -88.25887539 20.12242876 -86.55104542 18.38199806 C-63.2936726 -5.30116596 -31.04113622 -20.82290038 0 0 Z " fill="#000000" transform="translate(214.44034671783447,289.0943202972412)"/>
<path d="M0 0 C2.92442271 2.78584097 3.71810828 4.85990942 4.92749023 8.69360352 C5.33547852 9.93948242 5.7434668 11.18536133 6.16381836 12.46899414 C6.57735171 13.78169744 6.98945514 15.09485204 7.40014648 16.40844727 C12.9695044 34.03623148 18.80835834 46.89241936 35.32202148 56.24536133 C43.17053144 60.28061257 51.78402031 62.91351522 60.20092773 65.49047852 C67.87872478 67.84350301 67.87872478 67.84350301 71.15014648 70.65844727 C72.80490719 74.04676681 73.39631965 76.56531743 73.46264648 80.34594727 C71.77552507 85.21985356 69.99142515 87.06067424 65.46264648 89.34594727 C62.39163154 90.3639346 59.27226857 91.18780463 56.15014648 92.03344727 C49.30456043 93.9843107 42.88226323 96.25591425 36.52514648 99.47094727 C35.882146 99.79538818 35.23914551 100.1198291 34.57666016 100.45410156 C30.85889955 102.41000793 27.72388088 104.72062441 24.46264648 107.34594727 C23.80264648 107.34594727 23.14264648 107.34594727 22.46264648 107.34594727 C22.18936523 107.92731445 21.91608398 108.50868164 21.63452148 109.10766602 C20.48443209 111.30433675 19.17762246 113.16182678 17.71264648 115.15844727 C12.57659139 122.82513144 9.52506219 131.58341982 6.96264648 140.39672852 C6.7112793 141.24960449 6.45991211 142.10248047 6.20092773 142.98120117 C5.7187607 144.6480577 5.2568466 146.32094363 4.81811523 147.99975586 C3.62101352 152.16948516 2.89859657 153.97596331 -0.50610352 156.86547852 C-4.2408846 158.6895533 -6.4249653 158.9334313 -10.53735352 158.34594727 C-13.99163853 156.92359461 -15.9041321 155.62180603 -17.58813477 152.22875977 C-18.67186517 149.29421406 -19.60814882 146.33316828 -20.53735352 143.34594727 C-28.1070824 119.27521729 -28.1070824 119.27521729 -45.66235352 102.15844727 C-47.60590767 101.19068027 -49.56542625 100.25450577 -51.53735352 99.34594727 C-52.61114258 98.84321289 -53.68493164 98.34047852 -54.79125977 97.82250977 C-61.77242081 94.69329765 -68.74353498 92.1818791 -76.12011719 90.16992188 C-80.37709526 88.95001013 -83.35397565 87.44040397 -86.53735352 84.34594727 C-87.99809441 79.96372459 -88.28489658 76.11188233 -86.45922852 71.79907227 C-83.96191799 68.61144826 -81.25973724 67.68931331 -77.53735352 66.47094727 C-76.84037354 66.22393066 -76.14339355 65.97691406 -75.42529297 65.72241211 C-72.32867906 64.62675554 -69.21765066 63.57539902 -66.10522461 62.52563477 C-55.85058068 59.04438345 -46.71565441 55.74673363 -38.53735352 48.34594727 C-37.88766602 47.76586914 -37.23797852 47.18579102 -36.56860352 46.58813477 C-26.96434298 36.85750238 -23.2264085 22.10020627 -19.37744141 9.38305664 C-19.06540771 8.3859668 -18.75337402 7.38887695 -18.43188477 6.36157227 C-18.02740112 5.0201416 -18.02740112 5.0201416 -17.61474609 3.65161133 C-16.08628555 0.38064342 -13.96755182 -1.08197341 -10.66235352 -2.40405273 C-6.51686354 -2.89175744 -3.50162279 -2.28264162 0 0 Z " fill="#000000" transform="translate(396.537353515625,44.654052734375)"/>
<path d="M0 0 C0.72316406 -0.00128906 1.44632812 -0.00257813 2.19140625 -0.00390625 C5.60208823 0.85617877 7.00683236 1.96260866 9.4375 4.5625 C11.47936807 8.99756104 12.83557999 13.67565804 14.31054688 18.32226562 C16.79983618 25.74990259 19.61018976 31.01632022 26.2265625 35.41796875 C32.34424002 38.29142334 38.41556225 40.59623757 44.859375 42.62890625 C47.97868937 43.75847615 50.16814475 45.13663749 52.4375 47.5625 C53.91166602 51.98499805 54.01276617 55.79561105 52.5625 60.25 C49.21334067 63.89467338 45.04020544 64.95944692 40.4375 66.5625 C26.22071726 71.5553752 26.22071726 71.5553752 16.4375 82.5625 C14.7209109 86.97459557 13.47920178 91.53078966 12.20898438 96.08789062 C10.84108168 100.59714162 10.0640262 103.01744665 6.43359375 106.17578125 C2.72294346 107.89322695 0.48658499 108.14094071 -3.5625 107.5625 C-8.03622945 105.63265592 -9.84207219 103.51100241 -11.625 99.125 C-12.28917886 97.27732547 -12.93341126 95.42241454 -13.5625 93.5625 C-18.2615861 79.90615828 -18.2615861 79.90615828 -29 70.9375 C-32.07758165 69.50410581 -35.16946034 68.3398836 -38.40234375 67.3203125 C-39.40213257 67.00441162 -39.40213257 67.00441162 -40.42211914 66.68212891 C-42.3551643 66.08781411 -44.29856189 65.52749248 -46.2421875 64.96875 C-50.00616268 63.37459581 -51.45723195 62.03334732 -53.5625 58.5625 C-54.12890625 56.31640625 -54.12890625 56.31640625 -54.125 54.125 C-54.14691406 53.40441406 -54.16882813 52.68382812 -54.19140625 51.94140625 C-53.23373118 48.31889619 -51.41454177 45.89435548 -48.5625 43.5625 C-45.39388417 42.03899593 -42.11917226 41.04920387 -38.75 40.0625 C-30.89676264 37.73171069 -23.95881133 35.05187705 -18.86328125 28.31640625 C-18.53714844 27.59324219 -18.21101563 26.87007812 -17.875 26.125 C-17.48828125 25.27679688 -17.1015625 24.42859375 -16.703125 23.5546875 C-14.88375169 18.78194791 -13.44666213 13.89540205 -12.06640625 8.98046875 C-9.78057032 3.78538709 -6.1043954 -0.18564351 0 0 Z " fill="#000000" transform="translate(309.5625,159.4375)"/>
<path d="M0 0 C5.90581891 4.8059498 9.78434793 11.04847865 11.75 18.375 C12.77683629 29.7895988 11.9162258 39.46969022 4.5625 48.6875 C-1.3128676 54.88858094 -8.73016922 58.59156728 -17.25 59.375 C-26.99363422 59.48946266 -36.44150925 57.00625602 -43.65234375 50.1875 C-49.84988038 43.1565538 -52.8860465 35.75286842 -53.25 26.375 C-52.70151518 18.15869736 -50.38007803 11.0267577 -45 4.75 C-31.97428274 -6.49948308 -15.27937935 -10.41775865 0 0 Z " fill="#000000" transform="translate(148.25,186.625)"/>
<path d="M0 0 C3.06048212 1.79636994 4.57072503 3.27803755 6.375 6.3125 C7.78841493 12.39018421 6.00647931 16.14762007 3.125 21.4375 C0.14452499 27.0578243 -1.08804882 32.23874251 -1.88623047 38.48022461 C-2.53907783 43.07023493 -3.76551126 45.67958556 -7 49 C-10.08694821 50.83548272 -11.88407944 51.00207001 -15.5 50.9375 C-19.66166007 49.82276962 -21.27978168 48.28026327 -24 45 C-27.58716173 37.82567654 -24.3006503 27.13605216 -22 20 C-17.81132655 9.5624706 -13.00853359 -1.79772441 0 0 Z " fill="#000000" transform="translate(67,138)"/>
<path d="M0 0 C0.84671265 -0.00287018 1.69342529 -0.00574036 2.5657959 -0.00869751 C4.35099967 -0.01073354 6.13622598 -0.005236 7.92138672 0.00732422 C10.64731938 0.02338488 13.37176947 0.00746032 16.09765625 -0.01171875 C17.83594076 -0.00973624 19.57422435 -0.00589239 21.3125 0 C22.12408569 -0.00607269 22.93567139 -0.01214539 23.77185059 -0.0184021 C28.3857053 0.03868441 31.39955431 0.42754439 35.15625 3.3984375 C37.63146983 7.22377723 37.36927089 10.94157098 36.7734375 15.30859375 C35.82481876 18.52068884 33.97135672 19.75057015 31.15625 21.3984375 C27.98579519 22.98366491 24.56181153 22.60373457 21.078125 22.63671875 C20.27393127 22.6447905 19.46973755 22.65286224 18.64117432 22.66117859 C16.9364233 22.67502048 15.23164455 22.68574217 13.52685547 22.69360352 C10.93012256 22.7107796 8.33467524 22.75465834 5.73828125 22.79882812 C4.08073852 22.80895855 2.42318497 22.81747356 0.765625 22.82421875 C-0.00646301 22.84172684 -0.77855103 22.85923492 -1.57403564 22.87727356 C-6.77978452 22.85652057 -9.71906058 21.84385332 -13.84375 18.3984375 C-16.32625285 14.67468323 -16.25367301 11.70698994 -15.84375 7.3984375 C-14.99386278 4.53972594 -14.16541017 3.64897021 -11.81445312 1.81787109 C-7.79470806 -0.10280591 -4.39971987 -0.03292092 0 0 Z " fill="#000000" transform="translate(172.84375,116.6015625)"/>
<path d="M0 0 C1.12535156 0.04833984 1.12535156 0.04833984 2.2734375 0.09765625 C5.80231016 1.35796791 7.77877115 3.78180405 9.625 6.9375 C10.30013949 9.77761254 10.28153583 12.49758445 10.21875 15.40625 C10.21879028 16.20478394 10.21883057 17.00331787 10.21887207 17.8260498 C10.21353312 19.5069978 10.19601992 21.18794653 10.16699219 22.86865234 C10.12512024 25.43014453 10.12592997 27.98900419 10.1328125 30.55078125 C10.12231879 32.19012229 10.10937971 33.82944988 10.09375 35.46875 C10.09354858 36.22828979 10.09334717 36.98782959 10.09313965 37.77038574 C9.98818453 42.52578264 9.20121763 45.79993836 6.625 49.9375 C3.79421982 52.29648348 1.89058063 52.89323656 -1.75 53.5 C-6.60666243 52.74637997 -9.33048228 50.78165612 -12.375 46.9375 C-13.34162262 43.87594984 -13.3134395 41.00374563 -13.234375 37.8125 C-13.23632874 36.94737793 -13.23828247 36.08225586 -13.24029541 35.19091797 C-13.23630941 33.36870013 -13.21512526 31.54644791 -13.17773438 29.72460938 C-13.12513938 26.94486637 -13.13657505 24.17069569 -13.15625 21.390625 C-13.14443463 19.6145539 -13.12893286 17.83850271 -13.109375 16.0625 C-13.11322205 15.23733887 -13.11706909 14.41217773 -13.12103271 13.56201172 C-13.0036797 9.43646283 -12.62219584 6.71911284 -10.01660156 3.4296875 C-6.66764315 0.27015261 -4.45308859 -0.29636596 0 0 Z " fill="#000000" transform="translate(385.375,373.0625)"/>
<path d="M0 0 C2.82424288 2.19022918 4.41508603 3.83017207 6 7 C6.12344964 9.78565987 6.18841652 12.54531413 6.203125 15.33203125 C6.20882507 16.16079269 6.21452515 16.98955414 6.22039795 17.84342957 C6.22985248 19.59946413 6.23638373 21.35551647 6.24023438 23.11157227 C6.24992406 25.79149596 6.2809359 28.47064753 6.3125 31.15039062 C6.31903173 32.85676628 6.32428154 34.56314742 6.328125 36.26953125 C6.3404718 37.06865433 6.3528186 37.8677774 6.36553955 38.69111633 C6.34724985 43.28597298 5.98542601 46.27608768 3 50 C-1.2258785 52.81725233 -5.03624688 52.79958384 -10 52 C-12.82424288 49.80977082 -14.41508603 48.16982793 -16 45 C-16.13562708 42.22609889 -16.21271963 39.4785554 -16.23828125 36.703125 C-16.246353 35.87673523 -16.25442474 35.05034546 -16.26274109 34.19891357 C-16.27658371 32.44708352 -16.28730507 30.69522648 -16.29516602 28.94335938 C-16.31234417 26.27421304 -16.35622289 23.60631669 -16.40039062 20.9375 C-16.41052082 19.2343841 -16.4190359 17.53125767 -16.42578125 15.828125 C-16.44328934 15.03416321 -16.46079742 14.24020142 -16.47883606 13.42218018 C-16.45841681 8.16040988 -15.48936292 5.17505622 -12 1 C-8.28546768 -0.85726616 -4.04420575 -0.58501089 0 0 Z " fill="#000000" transform="translate(389,302)"/>
<path d="M0 0 C2.87029869 1.79393668 4.49131638 2.98263276 6 6 C6.13582508 8.93101146 6.21276479 11.83705138 6.23828125 14.76953125 C6.246353 15.64268478 6.25442474 16.51583832 6.26274109 17.41545105 C6.27658364 19.2656353 6.28730503 21.11584512 6.29516602 22.96606445 C6.3123692 25.79102197 6.35625166 28.61480621 6.40039062 31.43945312 C6.41051847 33.23697056 6.41903429 35.03449795 6.42578125 36.83203125 C6.44328934 37.67490189 6.46079742 38.51777252 6.47883606 39.38618469 C6.4639201 43.43436683 6.32563891 45.48210165 4.12182617 48.98706055 C1.7406766 51.24601558 0.19339006 52.23966903 -3 53 C-6.68022936 52.69957311 -9.9803614 52.18663485 -13 50 C-15.9201144 45.27532053 -16.45522069 41.18440819 -16.43359375 35.75 C-16.4388356 34.97366211 -16.44407745 34.19732422 -16.44947815 33.39746094 C-16.45587292 31.76368399 -16.45459445 30.12986084 -16.44604492 28.49609375 C-16.43752387 26.00697414 -16.46634591 23.52014401 -16.49804688 21.03125 C-16.49965897 19.43750068 -16.4990812 17.84374733 -16.49609375 16.25 C-16.50732773 15.51233398 -16.51856171 14.77466797 -16.53013611 14.01464844 C-16.46129891 8.87125684 -15.26188538 5.94690716 -12 2 C-7.98141405 -0.6790573 -4.72358279 -0.69610694 0 0 Z " fill="#000000" transform="translate(58,279)"/>
<path d="M0 0 C3.50187935 3.27160211 5.25891794 5.45133059 5.64697266 10.27368164 C5.67970067 11.90218764 5.6839641 13.53144301 5.6640625 15.16015625 C5.67123795 16.46139687 5.67123795 16.46139687 5.67855835 17.78892517 C5.68194801 19.61524275 5.67281108 21.44162177 5.65185547 23.26782227 C5.6250415 26.05818108 5.65164918 28.84452996 5.68359375 31.63476562 C5.68029012 33.41407134 5.67388485 35.19337458 5.6640625 36.97265625 C5.67418365 37.80297867 5.68430481 38.63330109 5.69473267 39.48878479 C5.60701942 43.83574681 5.4041513 45.49797533 2.58349609 49.00170898 C-1.49275484 52.1546209 -3.82754596 52.35067485 -9 52 C-13.22499358 50.17557095 -15.04105873 48.121032 -17 44 C-17.28760302 41.12179922 -17.42116972 38.46803721 -17.3984375 35.59375 C-17.40130768 34.79142944 -17.40417786 33.98910889 -17.40713501 33.16247559 C-17.40917038 31.47142834 -17.4036774 29.78035727 -17.39111328 28.08935547 C-17.37505135 25.50825102 -17.39097904 22.92871228 -17.41015625 20.34765625 C-17.40817372 18.70051739 -17.40432985 17.05337951 -17.3984375 15.40625 C-17.40451019 14.63841187 -17.41058289 13.87057373 -17.4168396 13.07946777 C-17.35771048 8.55089544 -16.86089779 5.56592555 -14 2 C-9.04400009 -0.85923072 -5.51188751 -1.73522385 0 0 Z " fill="#000000" transform="translate(59,208)"/>
<path d="M0 0 C0.75414185 -0.0066568 1.50828369 -0.0133136 2.28527832 -0.02017212 C3.87196429 -0.03024951 5.45869222 -0.03499067 7.04541016 -0.03466797 C9.46197533 -0.03905021 11.87672491 -0.07544298 14.29296875 -0.11328125 C15.84113964 -0.11914887 17.38931913 -0.12311863 18.9375 -0.125 C19.65329224 -0.13937103 20.36908447 -0.15374207 21.10656738 -0.16854858 C26.17537665 -0.12274248 29.10670202 1.08000422 32.96875 4.3359375 C34.32012668 8.39006754 34.65216294 12.10174865 33.96875 16.3359375 C31.78715855 19.09163197 30.09697506 20.77182497 26.96875 22.3359375 C24.11045883 22.47165438 21.27775434 22.54867671 18.41796875 22.57421875 C17.56701126 22.5822905 16.71605377 22.59036224 15.83930969 22.59867859 C14.03620441 22.61252044 12.23307291 22.62324215 10.42993164 22.63110352 C7.67738933 22.64830539 4.92605162 22.69218799 2.17382812 22.73632812 C0.42188383 22.74645613 -1.33007067 22.7549719 -3.08203125 22.76171875 C-3.90302811 22.77922684 -4.72402496 22.79673492 -5.56990051 22.81477356 C-9.58999452 22.79957793 -11.54974898 22.64147 -15.02807617 20.43432617 C-18.37149145 16.9319917 -18.37632329 14.2746139 -18.30859375 9.59375 C-17.88504714 6.14572265 -16.62212872 4.58591113 -14.03125 2.3359375 C-9.35684809 0.37907072 -5.00484042 0.01556179 0 0 Z " fill="#000000" transform="translate(104.03125,116.6640625)"/>
<path d="M0 0 C3.03718016 2.36225124 4.51490018 5.21277824 5.10742188 8.98803711 C5.16029852 12.07629768 5.1949027 15.16122415 5.1875 18.25 C5.21585937 19.32185547 5.24421875 20.39371094 5.2734375 21.49804688 C5.29521508 30.29074559 5.29521508 30.29074559 2.28125 34.00390625 C-1.26921385 37.16403296 -3.40936541 37.70683067 -8.20703125 37.671875 C-11.92843453 37.03668186 -13.71562849 34.97270984 -16.3125 32.3125 C-18.35411111 28.22927778 -17.54156579 22.98777192 -17.5625 18.5 C-17.583125 17.40623047 -17.60375 16.31246094 -17.625 15.18554688 C-17.63015625 14.12787109 -17.6353125 13.07019531 -17.640625 11.98046875 C-17.6499707 11.01391357 -17.65931641 10.0473584 -17.66894531 9.05151367 C-17.1692646 5.21184384 -15.69974019 2.39146459 -12.625 0 C-8.42709178 -1.24802677 -4.19790822 -1.24802677 0 0 Z " fill="#000000" transform="translate(390.3125,245.6875)"/>
<path d="M0 0 C1.62711914 -0.02416992 1.62711914 -0.02416992 3.28710938 -0.04882812 C4.86008789 -0.04979492 4.86008789 -0.04979492 6.46484375 -0.05078125 C7.41866943 -0.05376221 8.37249512 -0.05674316 9.35522461 -0.05981445 C13.16963763 0.46475763 15.99684348 1.94237019 18.375 5 C19.41400926 8.49484933 19.75414143 11.74472588 19.0625 15.3125 C17.3149257 18.33339981 15.23032234 20.72858883 12.0625 22.3125 C8.29749463 22.58105112 4.52350555 22.54410387 0.75 22.5625 C-0.29607422 22.583125 -1.34214844 22.60375 -2.41992188 22.625 C-3.43248047 22.63015625 -4.44503906 22.6353125 -5.48828125 22.640625 C-6.41294189 22.6499707 -7.33760254 22.65931641 -8.2902832 22.66894531 C-12.24474279 22.13648096 -14.8689952 20.30731482 -17.75 17.625 C-19.49338571 14.22998573 -19.48107078 11.00731217 -18.9375 7.3125 C-15.2363778 -1.20008107 -8.12819711 -0.02406216 0 0 Z " fill="#000000" transform="translate(247.9375,116.6875)"/>
</svg>
