<svg xmlns="http://www.w3.org/2000/svg" width="512" height="512" viewBox="0 0 512 512">
<g>
<path d="M 192.56 272.58 C191.03,273.70 179.54,273.93 129.10,273.86 C95.22,273.82 66.60,273.56 65.50,273.28 C64.40,273.01 62.99,272.38 62.38,271.88 C61.76,271.37 60.56,271.23 59.70,271.56 C58.74,271.93 57.73,271.37 57.04,270.08 C56.43,268.93 56.19,268.00 56.50,268.00 C58.38,268.00 54.45,263.97 51.68,263.06 C48.92,262.15 48.31,261.41 48.09,258.73 C47.74,254.51 47.74,129.49 48.09,125.27 C48.31,122.59 48.92,121.85 51.68,120.94 C55.39,119.72 57.00,117.62 57.00,114.00 C57.00,113.45 58.10,113.00 59.44,113.00 C60.78,113.00 62.17,112.54 62.52,111.97 C62.87,111.41 63.68,111.03 64.33,111.13 C64.97,111.23 66.20,111.01 67.05,110.63 C67.90,110.25 96.29,110.07 130.15,110.22 C178.03,110.44 192.03,110.78 193.22,111.77 C194.06,112.46 195.41,112.78 196.21,112.47 C197.85,111.84 200.48,114.42 199.62,115.81 C198.66,117.36 201.38,120.02 204.48,120.58 C207.50,121.13 209.74,123.22 207.97,123.83 C206.70,124.27 206.72,127.71 208.00,128.50 C208.65,128.90 209.00,151.16 209.00,192.00 C209.00,232.84 208.65,255.10 208.00,255.50 C206.72,256.29 206.70,259.73 207.97,260.17 C209.74,260.78 207.50,262.87 204.48,263.42 C201.24,264.01 198.86,266.46 199.61,268.44 C200.22,270.03 197.43,272.38 195.72,271.72 C195.00,271.45 193.58,271.83 192.56,272.58 ZM 384.56 464.58 C383.03,465.70 371.54,465.93 321.10,465.86 C287.22,465.82 258.60,465.56 257.50,465.28 C256.40,465.01 254.99,464.38 254.38,463.88 C253.76,463.37 252.56,463.23 251.70,463.56 C250.74,463.93 249.73,463.37 249.04,462.08 C248.43,460.93 248.19,460.00 248.50,460.00 C250.38,460.00 246.45,455.97 243.68,455.06 C240.92,454.15 240.31,453.41 240.09,450.73 C239.74,446.51 239.74,321.49 240.09,317.27 C240.31,314.59 240.92,313.85 243.68,312.94 C247.39,311.72 249.00,309.62 249.00,306.00 C249.00,305.45 250.10,305.00 251.44,305.00 C252.78,305.00 254.17,304.54 254.52,303.97 C254.87,303.41 255.68,303.03 256.33,303.13 C256.97,303.23 258.20,303.01 259.05,302.63 C259.90,302.25 288.29,302.07 322.15,302.22 C370.03,302.44 384.03,302.78 385.22,303.77 C386.06,304.46 387.41,304.78 388.21,304.47 C389.85,303.84 392.48,306.42 391.62,307.81 C390.66,309.36 393.38,312.02 396.48,312.58 C399.50,313.13 401.74,315.22 399.97,315.83 C398.70,316.27 398.72,319.71 400.00,320.50 C400.65,320.90 401.00,343.16 401.00,384.00 C401.00,424.84 400.65,447.10 400.00,447.50 C398.72,448.29 398.70,451.73 399.97,452.17 C401.74,452.78 399.50,454.87 396.48,455.42 C393.24,456.01 390.86,458.46 391.61,460.44 C392.22,462.03 389.43,464.38 387.72,463.72 C387.00,463.45 385.58,463.83 384.56,464.58 ZM 448.56 208.58 C447.03,209.70 435.54,209.93 385.10,209.86 C351.22,209.82 322.60,209.56 321.50,209.28 C320.40,209.01 318.99,208.38 318.38,207.88 C317.76,207.37 316.56,207.23 315.70,207.56 C314.74,207.93 313.73,207.37 313.04,206.08 C312.43,204.93 312.19,204.00 312.50,204.00 C314.38,204.00 310.45,199.97 307.68,199.06 C304.92,198.15 304.31,197.41 304.09,194.73 C303.94,192.95 303.83,162.93 303.83,128.00 C303.83,93.07 303.94,63.05 304.09,61.27 C304.31,58.59 304.92,57.85 307.68,56.94 C311.39,55.72 313.00,53.62 313.00,50.00 C313.00,49.45 314.10,49.00 315.44,49.00 C316.78,49.00 318.17,48.54 318.52,47.97 C318.87,47.41 319.68,47.03 320.33,47.13 C320.97,47.23 322.20,47.01 323.05,46.63 C323.90,46.25 352.29,46.07 386.15,46.22 C434.03,46.44 448.03,46.78 449.22,47.77 C450.06,48.46 451.41,48.78 452.21,48.47 C453.85,47.84 456.48,50.42 455.62,51.81 C454.66,53.36 457.38,56.02 460.48,56.58 C463.50,57.13 465.74,59.22 463.97,59.83 C462.70,60.27 462.72,63.71 464.00,64.50 C464.65,64.90 465.00,87.16 465.00,128.00 C465.00,168.84 464.65,191.10 464.00,191.50 C462.72,192.29 462.70,195.73 463.97,196.17 C465.74,196.78 463.50,198.87 460.48,199.42 C457.24,200.01 454.86,202.46 455.61,204.44 C456.22,206.03 453.43,208.38 451.72,207.72 C451.00,207.45 449.58,207.83 448.56,208.58 ZM 192.56 464.58 C191.03,465.70 179.54,465.93 129.10,465.86 C95.22,465.82 66.60,465.56 65.50,465.28 C64.40,465.01 62.99,464.38 62.38,463.88 C61.76,463.37 60.56,463.23 59.70,463.56 C58.74,463.93 57.73,463.37 57.04,462.08 C56.43,460.93 56.19,460.00 56.50,460.00 C58.38,460.00 54.45,455.97 51.68,455.06 C48.92,454.15 48.31,453.41 48.09,450.73 C47.74,446.51 47.74,321.49 48.09,317.27 C48.31,314.59 48.92,313.85 51.68,312.94 C55.39,311.72 57.00,309.62 57.00,306.00 C57.00,305.45 58.10,305.00 59.44,305.00 C60.78,305.00 62.17,304.54 62.52,303.97 C62.87,303.41 63.68,303.03 64.33,303.13 C64.97,303.23 66.20,303.01 67.05,302.63 C67.90,302.25 96.29,302.07 130.15,302.22 C178.03,302.44 192.03,302.78 193.22,303.77 C194.06,304.46 195.41,304.78 196.21,304.47 C197.85,303.84 200.48,306.42 199.62,307.81 C198.66,309.36 201.38,312.02 204.48,312.58 C207.50,313.13 209.74,315.22 207.97,315.83 C206.70,316.27 206.72,319.71 208.00,320.50 C208.65,320.90 209.00,343.16 209.00,384.00 C209.00,424.84 208.65,447.10 208.00,447.50 C206.72,448.29 206.70,451.73 207.97,452.17 C209.74,452.78 207.50,454.87 204.48,455.42 C201.24,456.01 198.86,458.46 199.61,460.44 C200.22,462.03 197.43,464.38 195.72,463.72 C195.00,463.45 193.58,463.83 192.56,464.58 Z" fill="rgb(0,0,0)"/>
<path d="M 393.50 467.35 C389.53,469.48 389.02,469.50 322.50,469.66 C285.65,469.76 254.15,469.49 252.50,469.08 C245.27,467.28 239.27,462.28 236.55,455.78 C235.20,452.54 235.00,443.29 235.02,383.78 C235.04,319.45 235.15,315.27 236.90,311.50 C237.91,309.30 240.04,306.29 241.62,304.80 C242.57,303.92 243.32,303.17 244.16,302.53 C248.82,299.00 256.17,299.00 314.26,299.00 C316.28,299.00 318.36,299.00 320.50,299.00 C380.12,299.00 389.55,299.20 392.77,300.55 C397.51,302.53 400.65,305.48 403.35,310.50 C405.49,314.48 405.50,314.76 405.50,384.00 C405.50,449.93 405.40,453.68 403.63,457.00 C401.01,461.92 398.14,464.85 393.50,467.35 ZM 201.50 467.35 C197.53,469.48 197.02,469.50 130.50,469.66 C93.65,469.76 62.15,469.49 60.50,469.08 C53.27,467.28 47.27,462.28 44.55,455.78 C43.20,452.54 43.00,443.29 43.02,383.78 C43.04,319.45 43.15,315.27 44.90,311.50 C45.91,309.30 48.04,306.29 49.62,304.80 C50.57,303.92 51.32,303.17 52.16,302.53 C56.82,299.00 64.17,299.00 122.26,299.00 C124.28,299.00 126.36,299.00 128.50,299.00 C188.12,299.00 197.55,299.20 200.77,300.55 C205.51,302.53 208.65,305.48 211.35,310.50 C213.49,314.48 213.50,314.76 213.50,384.00 C213.50,449.93 213.40,453.68 211.63,457.00 C209.01,461.92 206.14,464.85 201.50,467.35 ZM 457.50 211.35 C453.53,213.48 453.02,213.50 386.50,213.66 C349.65,213.76 318.15,213.49 316.50,213.08 C309.27,211.28 303.27,206.28 300.55,199.78 C299.20,196.54 299.00,187.29 299.02,127.78 C299.04,63.45 299.15,59.27 300.90,55.50 C301.91,53.30 304.04,50.29 305.62,48.80 C306.57,47.92 307.32,47.17 308.16,46.53 C312.82,43.00 320.17,43.00 378.26,43.00 C380.28,43.00 382.36,43.00 384.50,43.00 C444.12,43.00 453.55,43.20 456.77,44.55 C461.51,46.53 464.65,49.48 467.35,54.50 C469.49,58.48 469.50,58.76 469.50,128.00 C469.50,193.93 469.40,197.68 467.63,201.00 C465.01,205.92 462.14,208.85 457.50,211.35 ZM 201.50 275.35 C197.53,277.48 197.02,277.50 130.50,277.66 C93.65,277.76 62.15,277.49 60.50,277.08 C53.27,275.28 47.27,270.28 44.55,263.78 C43.20,260.54 43.00,251.29 43.02,191.78 C43.04,127.45 43.15,123.27 44.90,119.50 C45.91,117.30 48.04,114.29 49.62,112.80 C50.57,111.92 51.32,111.17 52.16,110.53 C56.82,107.00 64.17,107.00 122.26,107.00 C124.28,107.00 126.36,107.00 128.50,107.00 C188.12,107.00 197.55,107.20 200.77,108.55 C205.51,110.53 208.65,113.48 211.35,118.50 C213.49,122.48 213.50,122.76 213.50,192.00 C213.50,257.93 213.40,261.68 211.63,265.00 C209.01,269.92 206.14,272.85 201.50,275.35 ZM 192.56 272.58 C193.58,271.83 195.00,271.45 195.72,271.72 C197.43,272.38 200.22,270.03 199.61,268.44 C198.86,266.46 201.24,264.01 204.48,263.42 C207.50,262.87 209.74,260.78 207.97,260.17 C206.70,259.73 206.72,256.29 208.00,255.50 C208.65,255.10 209.00,232.84 209.00,192.00 C209.00,151.16 208.65,128.90 208.00,128.50 C206.72,127.71 206.70,124.27 207.97,123.83 C209.74,123.22 207.50,121.13 204.48,120.58 C201.38,120.02 198.66,117.36 199.62,115.81 C200.48,114.42 197.85,111.84 196.21,112.47 C195.41,112.78 194.06,112.46 193.22,111.77 C192.03,110.78 178.03,110.44 130.15,110.22 C96.29,110.07 67.90,110.25 67.05,110.63 C66.20,111.01 64.97,111.23 64.33,111.13 C63.68,111.03 62.87,111.41 62.52,111.97 C62.17,112.54 60.78,113.00 59.44,113.00 C58.10,113.00 57.00,113.45 57.00,114.00 C57.00,117.62 55.39,119.72 51.68,120.94 C48.92,121.85 48.31,122.59 48.09,125.27 C47.74,129.49 47.74,254.51 48.09,258.73 C48.31,261.41 48.92,262.15 51.68,263.06 C54.45,263.97 58.38,268.00 56.50,268.00 C56.19,268.00 56.43,268.93 57.04,270.08 C57.73,271.37 58.74,271.93 59.70,271.56 C60.56,271.23 61.76,271.37 62.38,271.88 C62.99,272.38 64.40,273.01 65.50,273.28 C66.60,273.56 95.22,273.82 129.10,273.86 C179.54,273.93 191.03,273.70 192.56,272.58 ZM 384.56 464.58 C385.58,463.83 387.00,463.45 387.72,463.72 C389.43,464.38 392.22,462.03 391.61,460.44 C390.86,458.46 393.24,456.01 396.48,455.42 C399.50,454.87 401.74,452.78 399.97,452.17 C398.70,451.73 398.72,448.29 400.00,447.50 C400.65,447.10 401.00,424.84 401.00,384.00 C401.00,343.16 400.65,320.90 400.00,320.50 C398.72,319.71 398.70,316.27 399.97,315.83 C401.74,315.22 399.50,313.13 396.48,312.58 C393.38,312.02 390.66,309.36 391.62,307.81 C392.48,306.42 389.85,303.84 388.21,304.47 C387.41,304.78 386.06,304.46 385.22,303.77 C384.03,302.78 370.03,302.44 322.15,302.22 C288.29,302.07 259.90,302.25 259.05,302.63 C258.20,303.01 256.97,303.23 256.33,303.13 C255.68,303.03 254.87,303.41 254.52,303.97 C254.17,304.54 252.78,305.00 251.44,305.00 C250.10,305.00 249.00,305.45 249.00,306.00 C249.00,309.62 247.39,311.72 243.68,312.94 C240.92,313.85 240.31,314.59 240.09,317.27 C239.74,321.49 239.74,446.51 240.09,450.73 C240.31,453.41 240.92,454.15 243.68,455.06 C246.45,455.97 250.38,460.00 248.50,460.00 C248.19,460.00 248.43,460.93 249.04,462.08 C249.73,463.37 250.74,463.93 251.70,463.56 C252.56,463.23 253.76,463.37 254.38,463.88 C254.99,464.38 256.40,465.01 257.50,465.28 C258.60,465.56 287.22,465.82 321.10,465.86 C371.54,465.93 383.03,465.70 384.56,464.58 ZM 448.56 208.58 C449.58,207.83 451.00,207.45 451.72,207.72 C453.43,208.38 456.22,206.03 455.61,204.44 C454.86,202.46 457.24,200.01 460.48,199.42 C463.50,198.87 465.74,196.78 463.97,196.17 C462.70,195.73 462.72,192.29 464.00,191.50 C464.65,191.10 465.00,168.84 465.00,128.00 C465.00,87.16 464.65,64.90 464.00,64.50 C462.72,63.71 462.70,60.27 463.97,59.83 C465.74,59.22 463.50,57.13 460.48,56.58 C457.38,56.02 454.66,53.36 455.62,51.81 C456.48,50.42 453.85,47.84 452.21,48.47 C451.41,48.78 450.06,48.46 449.22,47.77 C448.03,46.78 434.03,46.44 386.15,46.22 C352.29,46.07 323.90,46.25 323.05,46.63 C322.20,47.01 320.97,47.23 320.33,47.13 C319.68,47.03 318.87,47.41 318.52,47.97 C318.17,48.54 316.78,49.00 315.44,49.00 C314.10,49.00 313.00,49.45 313.00,50.00 C313.00,53.62 311.39,55.72 307.68,56.94 C304.92,57.85 304.31,58.59 304.09,61.27 C303.94,63.05 303.83,93.07 303.83,128.00 C303.83,162.93 303.94,192.95 304.09,194.73 C304.31,197.41 304.92,198.15 307.68,199.06 C310.45,199.97 314.38,204.00 312.50,204.00 C312.19,204.00 312.43,204.93 313.04,206.08 C313.73,207.37 314.74,207.93 315.70,207.56 C316.56,207.23 317.76,207.37 318.38,207.88 C318.99,208.38 320.40,209.01 321.50,209.28 C322.60,209.56 351.22,209.82 385.10,209.86 C435.54,209.93 447.03,209.70 448.56,208.58 ZM 192.56 464.58 C193.58,463.83 195.00,463.45 195.72,463.72 C197.43,464.38 200.22,462.03 199.61,460.44 C198.86,458.46 201.24,456.01 204.48,455.42 C207.50,454.87 209.74,452.78 207.97,452.17 C206.70,451.73 206.72,448.29 208.00,447.50 C208.65,447.10 209.00,424.84 209.00,384.00 C209.00,343.16 208.65,320.90 208.00,320.50 C206.72,319.71 206.70,316.27 207.97,315.83 C209.74,315.22 207.50,313.13 204.48,312.58 C201.38,312.02 198.66,309.36 199.62,307.81 C200.48,306.42 197.85,303.84 196.21,304.47 C195.41,304.78 194.06,304.46 193.22,303.77 C192.03,302.78 178.03,302.44 130.15,302.22 C96.29,302.07 67.90,302.25 67.05,302.63 C66.20,303.01 64.97,303.23 64.33,303.13 C63.68,303.03 62.87,303.41 62.52,303.97 C62.17,304.54 60.78,305.00 59.44,305.00 C58.10,305.00 57.00,305.45 57.00,306.00 C57.00,309.62 55.39,311.72 51.68,312.94 C48.92,313.85 48.31,314.59 48.09,317.27 C47.74,321.49 47.74,446.51 48.09,450.73 C48.31,453.41 48.92,454.15 51.68,455.06 C54.45,455.97 58.38,460.00 56.50,460.00 C56.19,460.00 56.43,460.93 57.04,462.08 C57.73,463.37 58.74,463.93 59.70,463.56 C60.56,463.23 61.76,463.37 62.38,463.88 C62.99,464.38 64.40,465.01 65.50,465.28 C66.60,465.56 95.22,465.82 129.10,465.86 C179.54,465.93 191.03,465.70 192.56,464.58 Z" fill="rgb(1,1,1)"/>
<path d="M 0.00 0.00 L 512.00 0.00 L 512.00 512.00 L 0.00 512.00 ZM 240.52 471.84 C242.53,473.42 243.71,473.63 246.70,472.96 C248.73,472.50 250.78,472.36 251.25,472.66 C251.73,472.95 253.25,472.90 254.65,472.55 C256.73,472.03 256.96,471.66 255.97,470.46 C255.53,469.93 254.76,469.46 253.99,469.21 C260.86,469.54 289.54,469.75 322.50,469.66 C375.86,469.53 386.74,469.50 391.01,468.38 C390.00,468.77 389.11,469.00 388.48,469.00 C387.60,469.00 385.97,469.48 384.87,470.07 C383.31,470.90 383.12,471.44 384.01,472.52 C384.80,473.47 385.85,473.63 387.40,473.04 C388.64,472.57 391.19,472.51 393.08,472.92 C396.65,473.68 400.89,472.46 401.15,470.59 C401.24,469.99 401.41,469.05 401.54,468.50 C401.66,467.95 401.82,466.95 401.88,466.28 C401.95,465.61 402.58,465.28 403.28,465.55 C406.14,466.65 408.04,463.61 408.41,457.37 C408.60,453.99 408.42,450.68 407.99,449.99 C406.94,448.29 405.00,449.66 405.00,452.10 C405.00,452.74 404.82,453.58 404.50,454.52 C405.44,449.80 405.50,436.97 405.50,384.00 C405.50,330.16 405.50,318.02 404.48,313.41 C404.81,314.34 405.00,315.17 405.00,315.79 C405.00,316.82 405.30,317.97 405.67,318.33 C406.56,319.23 407.97,319.18 408.11,318.25 C408.17,317.84 408.34,314.67 408.50,311.21 C408.76,305.59 408.55,304.75 406.51,303.42 C405.26,302.60 403.62,302.05 402.87,302.21 C401.99,302.40 401.58,301.71 401.73,300.31 C402.15,296.28 393.46,291.82 391.47,295.04 C391.12,295.61 389.97,295.81 388.92,295.47 C387.86,295.14 386.12,295.14 385.05,295.48 C382.37,296.33 383.58,299.00 386.64,299.00 C388.10,299.00 390.09,299.51 392.11,300.32 C388.23,299.18 376.52,299.00 320.50,299.00 C318.36,299.00 316.28,299.00 314.26,299.00 L 314.25 299.00 C268.52,299.00 254.24,299.00 247.96,300.72 C250.12,299.70 252.25,299.04 253.75,299.02 C254.99,299.01 256.00,298.57 256.00,298.05 C256.00,296.58 252.93,295.21 250.86,295.75 C249.81,296.02 249.00,295.71 249.00,295.04 C249.00,293.25 242.45,294.41 240.29,296.57 C239.31,297.56 238.50,299.30 238.50,300.43 C238.50,301.56 237.82,302.53 237.00,302.59 C236.18,302.65 234.95,302.76 234.29,302.85 C233.62,302.93 232.67,304.69 232.18,306.75 C231.40,310.04 231.34,312.11 231.88,318.50 C232.07,320.80 235.00,320.30 235.00,317.97 C235.00,316.50 235.61,314.41 236.57,312.27 C235.14,316.09 235.04,323.73 235.02,383.78 C235.00,440.28 235.18,451.48 236.36,455.24 C235.52,453.28 235.00,451.39 235.00,450.03 C235.00,448.89 234.34,448.00 233.50,448.00 C231.85,448.00 231.83,448.06 231.59,456.18 C231.40,462.49 232.76,465.23 236.23,465.52 C237.89,465.66 238.44,466.28 238.27,467.80 C238.14,469.03 239.07,470.69 240.52,471.84 ZM 48.52 471.84 C50.53,473.42 51.71,473.63 54.70,472.96 C56.73,472.50 58.78,472.36 59.25,472.66 C59.73,472.95 61.25,472.90 62.65,472.55 C64.73,472.03 64.96,471.66 63.97,470.46 C63.53,469.93 62.76,469.46 61.99,469.21 C68.86,469.54 97.54,469.75 130.50,469.66 C183.85,469.53 194.74,469.50 199.01,468.38 C198.00,468.77 197.11,469.00 196.48,469.00 C195.60,469.00 193.97,469.48 192.87,470.07 C191.31,470.90 191.12,471.44 192.01,472.52 C192.80,473.47 193.85,473.63 195.40,473.04 C196.64,472.57 199.19,472.51 201.08,472.92 C204.65,473.68 208.89,472.46 209.15,470.59 C209.24,469.99 209.41,469.05 209.54,468.50 C209.66,467.95 209.82,466.95 209.88,466.28 C209.95,465.61 210.58,465.28 211.28,465.55 C214.14,466.65 216.04,463.61 216.41,457.37 C216.60,453.99 216.42,450.68 215.99,449.99 C214.94,448.29 213.00,449.66 213.00,452.10 C213.00,452.74 212.82,453.58 212.50,454.52 C213.44,449.80 213.50,436.97 213.50,384.00 C213.50,330.16 213.50,318.02 212.48,313.41 C212.81,314.34 213.00,315.17 213.00,315.79 C213.00,316.82 213.30,317.97 213.67,318.33 C214.56,319.23 215.97,319.18 216.11,318.25 C216.17,317.84 216.34,314.67 216.50,311.21 C216.76,305.59 216.55,304.75 214.51,303.42 C213.26,302.60 211.62,302.05 210.87,302.21 C209.99,302.40 209.58,301.71 209.73,300.31 C210.15,296.28 201.46,291.82 199.47,295.04 C199.12,295.61 197.97,295.81 196.92,295.47 C195.86,295.14 194.12,295.14 193.05,295.48 C190.37,296.33 191.58,299.00 194.64,299.00 C196.10,299.00 198.09,299.51 200.11,300.32 C196.22,299.18 184.52,299.00 128.50,299.00 C126.36,299.00 124.28,299.00 122.26,299.00 L 122.25 299.00 C76.52,299.00 62.24,299.00 55.96,300.72 C58.12,299.70 60.25,299.04 61.75,299.02 C62.99,299.01 64.00,298.57 64.00,298.05 C64.00,296.58 60.93,295.21 58.86,295.75 C57.81,296.02 57.00,295.71 57.00,295.04 C57.00,293.25 50.45,294.41 48.29,296.57 C47.31,297.56 46.50,299.30 46.50,300.43 C46.50,301.56 45.83,302.53 45.00,302.59 C44.17,302.65 42.95,302.76 42.29,302.85 C41.62,302.93 40.67,304.69 40.18,306.75 C39.40,310.04 39.34,312.11 39.88,318.50 C40.07,320.80 43.00,320.30 43.00,317.97 C43.00,316.50 43.61,314.41 44.57,312.27 C43.14,316.09 43.04,323.72 43.02,383.78 C43.00,440.28 43.18,451.48 44.36,455.24 C43.52,453.28 43.00,451.39 43.00,450.03 C43.00,448.89 42.34,448.00 41.50,448.00 C39.85,448.00 39.83,448.06 39.59,456.18 C39.40,462.49 40.76,465.23 44.23,465.52 C45.89,465.66 46.44,466.28 46.27,467.80 C46.14,469.03 47.07,470.69 48.52,471.84 ZM 48.52 279.84 C50.53,281.42 51.71,281.63 54.70,280.96 C56.73,280.50 58.78,280.36 59.25,280.66 C59.73,280.95 61.25,280.90 62.65,280.55 C64.73,280.03 64.96,279.66 63.97,278.46 C63.53,277.93 62.76,277.46 61.99,277.21 C68.86,277.54 97.54,277.75 130.50,277.66 C183.85,277.53 194.74,277.50 199.01,276.38 C198.00,276.77 197.11,277.00 196.48,277.00 C195.60,277.00 193.97,277.48 192.87,278.07 C191.31,278.90 191.12,279.44 192.01,280.52 C192.80,281.47 193.85,281.63 195.40,281.04 C196.64,280.57 199.19,280.51 201.08,280.92 C204.65,281.68 208.89,280.46 209.15,278.59 C209.24,277.99 209.41,277.05 209.54,276.50 C209.66,275.95 209.82,274.95 209.88,274.28 C209.95,273.61 210.58,273.28 211.28,273.55 C214.14,274.65 216.04,271.61 216.41,265.37 C216.60,261.99 216.42,258.68 215.99,257.99 C214.94,256.29 213.00,257.66 213.00,260.10 C213.00,260.74 212.82,261.58 212.50,262.52 C213.44,257.80 213.50,244.97 213.50,192.00 C213.50,138.16 213.50,126.02 212.48,121.41 C212.81,122.34 213.00,123.17 213.00,123.79 C213.00,124.82 213.30,125.97 213.67,126.33 C214.56,127.23 215.97,127.18 216.11,126.25 C216.17,125.84 216.34,122.67 216.50,119.21 C216.76,113.59 216.55,112.75 214.51,111.42 C213.26,110.60 211.62,110.05 210.87,110.21 C209.99,110.40 209.58,109.71 209.73,108.31 C210.15,104.28 201.46,99.82 199.47,103.04 C199.12,103.61 197.97,103.81 196.92,103.47 C195.86,103.14 194.12,103.14 193.05,103.48 C190.37,104.33 191.58,107.00 194.64,107.00 C196.10,107.00 198.09,107.51 200.11,108.32 C196.23,107.18 184.52,107.00 128.50,107.00 C126.36,107.00 124.28,107.00 122.26,107.00 C76.52,107.00 62.24,107.00 55.96,108.72 C58.12,107.70 60.25,107.04 61.75,107.02 C62.99,107.01 64.00,106.57 64.00,106.05 C64.00,104.58 60.93,103.21 58.86,103.75 C57.81,104.02 57.00,103.71 57.00,103.04 C57.00,101.25 50.45,102.41 48.29,104.57 C47.31,105.56 46.50,107.30 46.50,108.43 C46.50,109.56 45.83,110.53 45.00,110.59 C44.17,110.65 42.95,110.76 42.29,110.85 C41.62,110.93 40.67,112.69 40.18,114.75 C39.40,118.04 39.34,120.11 39.88,126.50 C40.07,128.80 43.00,128.30 43.00,125.97 C43.00,124.50 43.61,122.41 44.57,120.27 C43.14,124.09 43.04,131.73 43.02,191.78 C43.00,248.28 43.18,259.48 44.36,263.24 C43.52,261.28 43.00,259.39 43.00,258.03 C43.00,256.89 42.34,256.00 41.50,256.00 C39.85,256.00 39.83,256.06 39.59,264.18 C39.40,270.49 40.76,273.23 44.23,273.52 C45.89,273.66 46.44,274.28 46.27,275.80 C46.14,277.03 47.07,278.69 48.52,279.84 ZM 304.52 215.84 C306.53,217.42 307.71,217.63 310.70,216.96 C312.73,216.50 314.78,216.36 315.25,216.66 C315.73,216.95 317.25,216.90 318.65,216.55 C320.73,216.03 320.96,215.66 319.97,214.46 C319.53,213.93 318.76,213.46 317.99,213.21 C324.86,213.54 353.54,213.75 386.50,213.66 C439.85,213.53 450.74,213.50 455.01,212.38 C454.00,212.77 453.11,213.00 452.48,213.00 C451.60,213.00 449.97,213.48 448.87,214.07 C447.31,214.90 447.12,215.44 448.01,216.52 C448.80,217.47 449.85,217.63 451.40,217.04 C452.64,216.57 455.19,216.51 457.08,216.92 C460.65,217.68 464.89,216.46 465.15,214.59 C465.24,213.99 465.41,213.05 465.54,212.50 C465.66,211.95 465.82,210.95 465.88,210.28 C465.95,209.61 466.58,209.28 467.28,209.55 C470.14,210.65 472.04,207.61 472.41,201.37 C472.60,197.99 472.42,194.68 471.99,193.99 C470.94,192.29 469.00,193.66 469.00,196.10 C469.00,196.74 468.82,197.58 468.50,198.52 C469.44,193.80 469.50,180.97 469.50,128.00 C469.50,74.16 469.50,62.02 468.48,57.41 C468.81,58.34 469.00,59.17 469.00,59.79 C469.00,60.82 469.30,61.97 469.67,62.33 C470.56,63.23 471.97,63.18 472.11,62.25 C472.17,61.84 472.34,58.67 472.50,55.21 C472.76,49.59 472.55,48.75 470.51,47.42 C469.26,46.60 467.62,46.05 466.87,46.21 C465.99,46.40 465.58,45.71 465.73,44.31 C466.15,40.28 457.46,35.82 455.47,39.04 C455.12,39.61 453.97,39.81 452.92,39.47 C451.86,39.14 450.12,39.14 449.05,39.48 C446.37,40.33 447.58,43.00 450.64,43.00 C452.10,43.00 454.09,43.51 456.11,44.32 C452.23,43.18 440.52,43.00 384.50,43.00 C382.36,43.00 380.28,43.00 378.26,43.00 C332.52,43.00 318.24,43.00 311.96,44.72 C314.12,43.70 316.25,43.04 317.75,43.02 C318.99,43.01 320.00,42.57 320.00,42.05 C320.00,40.58 316.93,39.21 314.86,39.75 C313.81,40.02 313.00,39.71 313.00,39.04 C313.00,37.25 306.45,38.41 304.29,40.57 C303.31,41.56 302.50,43.30 302.50,44.43 C302.50,45.56 301.83,46.53 301.00,46.59 C300.17,46.65 298.95,46.76 298.29,46.85 C297.62,46.93 296.67,48.69 296.18,50.75 C295.40,54.04 295.34,56.11 295.88,62.50 C296.07,64.80 299.00,64.30 299.00,61.97 C299.00,60.50 299.61,58.41 300.57,56.27 C299.14,60.09 299.04,67.72 299.02,127.78 C299.00,184.28 299.18,195.48 300.36,199.24 C299.52,197.28 299.00,195.39 299.00,194.03 C299.00,192.89 298.34,192.00 297.50,192.00 C295.85,192.00 295.83,192.06 295.59,200.18 C295.40,206.49 296.76,209.23 300.23,209.52 C301.89,209.66 302.44,210.28 302.27,211.80 C302.14,213.03 303.07,214.69 304.52,215.84 ZM 400.54 306.23 C399.38,304.82 398.11,303.64 396.67,302.65 C397.49,303.18 398.23,303.74 398.83,304.30 C399.39,304.82 399.97,305.48 400.54,306.23 ZM 464.54 50.23 C463.38,48.82 462.11,47.64 460.67,46.65 C461.49,47.18 462.23,47.74 462.83,48.30 C463.39,48.82 463.97,49.48 464.54,50.23 ZM 208.54 306.23 C207.38,304.82 206.11,303.64 204.67,302.65 C205.49,303.18 206.23,303.74 206.83,304.30 C207.39,304.82 207.97,305.48 208.54,306.23 ZM 208.54 114.23 C207.38,112.82 206.11,111.64 204.67,110.65 C205.49,111.18 206.23,111.74 206.83,112.30 C207.39,112.82 207.97,113.48 208.54,114.23 ZM 464.86 205.33 C464.19,206.23 463.51,207.03 462.85,207.63 C462.41,208.03 461.91,208.44 461.37,208.84 C462.67,207.80 463.81,206.66 464.86,205.33 ZM 400.86 461.33 C400.19,462.23 399.51,463.03 398.85,463.63 C398.41,464.03 397.91,464.44 397.37,464.84 C398.67,463.80 399.81,462.66 400.86,461.33 ZM 208.86 269.33 C208.19,270.23 207.51,271.03 206.85,271.63 C206.41,272.03 205.91,272.44 205.37,272.83 C206.67,271.80 207.81,270.66 208.86,269.33 ZM 208.86 461.33 C208.19,462.23 207.51,463.03 206.85,463.63 C206.41,464.03 205.91,464.44 205.37,464.83 C206.67,463.80 207.81,462.66 208.86,461.33 ZM 302.25 53.08 C303.04,51.78 303.91,50.57 304.80,49.62 C304.95,49.47 305.10,49.31 305.26,49.16 C304.29,50.15 303.17,51.62 302.25,53.08 ZM 238.25 309.08 C239.04,307.78 239.91,306.57 240.80,305.62 C240.95,305.47 241.10,305.31 241.26,305.16 C240.29,306.15 239.17,307.62 238.25,309.08 ZM 46.25 309.08 C47.04,307.78 47.91,306.57 48.80,305.62 C48.95,305.47 49.10,305.31 49.26,305.16 C48.29,306.15 47.17,307.62 46.25,309.08 ZM 46.25 117.08 C47.04,115.78 47.91,114.57 48.80,113.62 C48.95,113.47 49.10,113.31 49.26,113.16 C48.29,114.15 47.17,115.62 46.25,117.08 ZM 306.42 207.84 C305.83,207.35 305.28,206.84 304.80,206.34 C304.34,205.85 303.88,205.29 303.43,204.69 C304.32,205.83 305.32,206.88 306.42,207.84 ZM 50.42 271.84 C49.83,271.35 49.28,270.84 48.80,270.34 C48.34,269.85 47.88,269.29 47.43,268.69 C48.32,269.83 49.32,270.88 50.42,271.84 ZM 242.42 463.84 C241.83,463.35 241.28,462.84 240.80,462.34 C240.34,461.85 239.88,461.29 239.43,460.69 C240.32,461.83 241.32,462.88 242.42,463.84 ZM 50.42 463.84 C49.83,463.35 49.28,462.84 48.80,462.34 C48.34,461.85 47.88,461.29 47.43,460.69 C48.32,461.83 49.32,462.88 50.42,463.84 ZM 251.58 468.83 C250.76,468.64 249.80,468.30 248.79,467.84 C249.69,468.22 250.63,468.56 251.58,468.83 ZM 59.58 276.83 C58.76,276.64 57.80,276.30 56.79,275.84 C57.69,276.22 58.63,276.56 59.58,276.83 ZM 59.58 468.83 C58.76,468.64 57.80,468.30 56.79,467.84 C57.69,468.22 58.63,468.56 59.58,468.83 ZM 315.58 212.83 C314.76,212.64 313.80,212.30 312.79,211.84 C313.69,212.22 314.63,212.56 315.58,212.83 Z" fill="rgb(254,254,254)"/>
<path d="M 48.52 471.84 C47.07,470.69 46.14,469.03 46.27,467.80 C46.44,466.28 45.89,465.66 44.23,465.52 C40.76,465.23 39.40,462.49 39.59,456.18 C39.83,448.06 39.85,448.00 41.50,448.00 C42.34,448.00 43.00,448.89 43.00,450.03 C43.00,453.20 45.84,459.21 48.80,462.34 C51.90,465.61 58.03,469.00 60.84,469.00 C61.89,469.00 63.30,469.66 63.97,470.46 C64.96,471.66 64.73,472.03 62.65,472.55 C61.25,472.90 59.73,472.95 59.25,472.66 C58.78,472.36 56.73,472.50 54.70,472.96 C51.71,473.63 50.53,473.42 48.52,471.84 ZM 192.01 472.52 C191.12,471.44 191.31,470.90 192.87,470.07 C193.97,469.48 195.60,469.00 196.48,469.00 C198.66,469.00 203.96,466.25 206.85,463.63 C209.68,461.06 213.00,454.83 213.00,452.10 C213.00,449.66 214.94,448.29 215.99,449.99 C216.42,450.68 216.60,453.99 216.41,457.37 C216.04,463.61 214.14,466.65 211.28,465.55 C210.58,465.28 209.95,465.61 209.88,466.28 C209.82,466.95 209.66,467.95 209.54,468.50 C209.41,469.05 209.24,469.99 209.15,470.59 C208.89,472.46 204.65,473.68 201.08,472.92 C199.19,472.51 196.64,472.57 195.40,473.04 C193.85,473.63 192.80,473.47 192.01,472.52 ZM 240.52 471.84 C239.07,470.69 238.14,469.03 238.27,467.80 C238.44,466.28 237.89,465.66 236.23,465.52 C232.76,465.23 231.40,462.49 231.59,456.18 C231.83,448.06 231.85,448.00 233.50,448.00 C234.34,448.00 235.00,448.89 235.00,450.03 C235.00,453.20 237.84,459.21 240.80,462.34 C243.90,465.61 250.03,469.00 252.84,469.00 C253.89,469.00 255.30,469.66 255.97,470.46 C256.96,471.66 256.73,472.03 254.65,472.55 C253.25,472.90 251.73,472.95 251.25,472.66 C250.78,472.36 248.73,472.50 246.70,472.96 C243.71,473.63 242.53,473.42 240.52,471.84 ZM 384.01 472.52 C383.12,471.44 383.31,470.90 384.87,470.07 C385.97,469.48 387.60,469.00 388.48,469.00 C390.66,469.00 395.96,466.25 398.85,463.63 C401.68,461.06 405.00,454.83 405.00,452.10 C405.00,449.66 406.94,448.29 407.99,449.99 C408.42,450.68 408.60,453.99 408.41,457.37 C408.04,463.61 406.14,466.65 403.28,465.55 C402.58,465.28 401.95,465.61 401.88,466.28 C401.82,466.95 401.66,467.95 401.54,468.50 C401.41,469.05 401.24,469.99 401.15,470.59 C400.89,472.46 396.65,473.68 393.08,472.92 C391.19,472.51 388.64,472.57 387.40,473.04 C385.85,473.63 384.80,473.47 384.01,472.52 ZM 39.88 318.50 C39.34,312.11 39.40,310.04 40.18,306.75 C40.67,304.69 41.62,302.93 42.29,302.85 C42.95,302.76 44.17,302.65 45.00,302.59 C45.83,302.53 46.50,301.56 46.50,300.43 C46.50,299.30 47.31,297.56 48.29,296.57 C50.45,294.41 57.00,293.25 57.00,295.04 C57.00,295.71 57.81,296.02 58.86,295.75 C60.93,295.21 64.00,296.58 64.00,298.05 C64.00,298.57 62.99,299.01 61.75,299.02 C58.37,299.05 51.84,302.38 48.80,305.62 C45.83,308.80 43.00,314.81 43.00,317.97 C43.00,320.30 40.07,320.80 39.88,318.50 ZM 231.88 318.50 C231.34,312.11 231.40,310.04 232.18,306.75 C232.67,304.69 233.62,302.93 234.29,302.85 C234.95,302.76 236.18,302.65 237.00,302.59 C237.82,302.53 238.50,301.56 238.50,300.43 C238.50,299.30 239.31,297.56 240.29,296.57 C242.45,294.41 249.00,293.25 249.00,295.04 C249.00,295.71 249.81,296.02 250.86,295.75 C252.93,295.21 256.00,296.58 256.00,298.05 C256.00,298.57 254.99,299.01 253.75,299.02 C250.37,299.05 243.84,302.38 240.80,305.62 C237.83,308.80 235.00,314.81 235.00,317.97 C235.00,320.30 232.07,320.80 231.88,318.50 ZM 213.67 318.33 C213.30,317.97 213.00,316.82 213.00,315.79 C213.00,313.17 209.65,306.92 206.83,304.30 C203.96,301.62 197.93,299.00 194.64,299.00 C191.58,299.00 190.37,296.33 193.05,295.48 C194.12,295.14 195.86,295.14 196.92,295.47 C197.97,295.81 199.12,295.61 199.47,295.04 C201.46,291.82 210.15,296.28 209.73,300.31 C209.58,301.71 209.99,302.40 210.87,302.21 C211.62,302.05 213.26,302.60 214.51,303.42 C216.55,304.75 216.76,305.59 216.50,311.21 C216.34,314.67 216.17,317.84 216.11,318.25 C215.97,319.18 214.56,319.23 213.67,318.33 ZM 405.67 318.33 C405.30,317.97 405.00,316.82 405.00,315.79 C405.00,313.17 401.65,306.92 398.83,304.30 C395.96,301.62 389.93,299.00 386.64,299.00 C383.58,299.00 382.37,296.33 385.05,295.48 C386.12,295.14 387.86,295.14 388.92,295.47 C389.97,295.81 391.12,295.61 391.47,295.04 C393.46,291.82 402.15,296.28 401.73,300.31 C401.58,301.71 401.99,302.40 402.87,302.21 C403.62,302.05 405.26,302.60 406.51,303.42 C408.55,304.75 408.76,305.59 408.50,311.21 C408.34,314.67 408.17,317.84 408.11,318.25 C407.97,319.18 406.56,319.23 405.67,318.33 ZM 48.52 279.84 C47.07,278.69 46.14,277.03 46.27,275.80 C46.44,274.28 45.89,273.66 44.23,273.52 C40.76,273.23 39.40,270.49 39.59,264.18 C39.83,256.06 39.85,256.00 41.50,256.00 C42.34,256.00 43.00,256.89 43.00,258.03 C43.00,261.20 45.84,267.21 48.80,270.34 C51.90,273.61 58.03,277.00 60.84,277.00 C61.89,277.00 63.30,277.66 63.97,278.46 C64.96,279.66 64.73,280.03 62.65,280.55 C61.25,280.90 59.73,280.95 59.25,280.66 C58.78,280.36 56.73,280.50 54.70,280.96 C51.71,281.63 50.53,281.42 48.52,279.84 ZM 192.01 280.52 C191.12,279.44 191.31,278.90 192.87,278.07 C193.97,277.48 195.60,277.00 196.48,277.00 C198.66,277.00 203.96,274.25 206.85,271.63 C209.68,269.06 213.00,262.83 213.00,260.10 C213.00,257.66 214.94,256.29 215.99,257.99 C216.42,258.68 216.60,261.99 216.41,265.37 C216.04,271.61 214.14,274.65 211.28,273.55 C210.58,273.28 209.95,273.61 209.88,274.28 C209.82,274.95 209.66,275.95 209.54,276.50 C209.41,277.05 209.24,277.99 209.15,278.59 C208.89,280.46 204.65,281.68 201.08,280.92 C199.19,280.51 196.64,280.57 195.40,281.04 C193.85,281.63 192.80,281.47 192.01,280.52 ZM 304.52 215.84 C303.07,214.69 302.14,213.03 302.27,211.80 C302.44,210.28 301.89,209.66 300.23,209.52 C296.76,209.23 295.40,206.49 295.59,200.18 C295.83,192.06 295.85,192.00 297.50,192.00 C298.34,192.00 299.00,192.89 299.00,194.03 C299.00,197.20 301.84,203.21 304.80,206.34 C307.90,209.61 314.03,213.00 316.84,213.00 C317.89,213.00 319.30,213.66 319.97,214.46 C320.96,215.66 320.73,216.03 318.65,216.55 C317.25,216.90 315.73,216.95 315.25,216.66 C314.78,216.36 312.73,216.50 310.70,216.96 C307.71,217.63 306.53,217.42 304.52,215.84 ZM 448.01 216.52 C447.12,215.44 447.31,214.90 448.87,214.07 C449.97,213.48 451.60,213.00 452.48,213.00 C454.66,213.00 459.96,210.25 462.85,207.63 C465.68,205.06 469.00,198.83 469.00,196.10 C469.00,193.66 470.94,192.29 471.99,193.99 C472.42,194.68 472.60,197.99 472.41,201.37 C472.04,207.61 470.14,210.65 467.28,209.55 C466.58,209.28 465.95,209.61 465.88,210.28 C465.82,210.95 465.66,211.95 465.54,212.50 C465.41,213.05 465.24,213.99 465.15,214.59 C464.89,216.46 460.65,217.68 457.08,216.92 C455.19,216.51 452.64,216.57 451.40,217.04 C449.85,217.63 448.80,217.47 448.01,216.52 ZM 39.88 126.50 C39.34,120.11 39.40,118.04 40.18,114.75 C40.67,112.69 41.62,110.93 42.29,110.85 C42.95,110.76 44.17,110.65 45.00,110.59 C45.83,110.53 46.50,109.56 46.50,108.43 C46.50,107.30 47.31,105.56 48.29,104.57 C50.45,102.41 57.00,101.25 57.00,103.04 C57.00,103.71 57.81,104.02 58.86,103.75 C60.93,103.21 64.00,104.58 64.00,106.05 C64.00,106.57 62.99,107.01 61.75,107.02 C58.37,107.05 51.84,110.38 48.80,113.62 C45.83,116.80 43.00,122.81 43.00,125.97 C43.00,128.30 40.07,128.80 39.88,126.50 ZM 213.67 126.33 C213.30,125.97 213.00,124.82 213.00,123.79 C213.00,121.17 209.65,114.92 206.83,112.30 C203.96,109.62 197.93,107.00 194.64,107.00 C191.58,107.00 190.37,104.33 193.05,103.48 C194.12,103.14 195.86,103.14 196.92,103.47 C197.97,103.81 199.12,103.61 199.47,103.04 C201.46,99.82 210.15,104.28 209.73,108.31 C209.58,109.71 209.99,110.40 210.87,110.21 C211.62,110.05 213.26,110.60 214.51,111.42 C216.55,112.75 216.76,113.59 216.50,119.21 C216.34,122.67 216.17,125.84 216.11,126.25 C215.97,127.18 214.56,127.23 213.67,126.33 ZM 295.88 62.50 C295.34,56.11 295.40,54.04 296.18,50.75 C296.67,48.69 297.62,46.93 298.29,46.85 C298.95,46.76 300.17,46.65 301.00,46.59 C301.83,46.53 302.50,45.56 302.50,44.43 C302.50,43.30 303.31,41.56 304.29,40.57 C306.45,38.41 313.00,37.25 313.00,39.04 C313.00,39.71 313.81,40.02 314.86,39.75 C316.93,39.21 320.00,40.58 320.00,42.05 C320.00,42.57 318.99,43.01 317.75,43.02 C314.37,43.05 307.84,46.38 304.80,49.62 C301.83,52.80 299.00,58.81 299.00,61.97 C299.00,64.30 296.07,64.80 295.88,62.50 ZM 469.67 62.33 C469.30,61.97 469.00,60.82 469.00,59.79 C469.00,57.17 465.65,50.92 462.83,48.30 C459.96,45.62 453.93,43.00 450.64,43.00 C447.58,43.00 446.37,40.33 449.05,39.48 C450.12,39.14 451.86,39.14 452.92,39.47 C453.97,39.81 455.12,39.61 455.47,39.04 C457.46,35.82 466.15,40.28 465.73,44.31 C465.58,45.71 465.99,46.40 466.87,46.21 C467.62,46.05 469.26,46.60 470.51,47.42 C472.55,48.75 472.76,49.59 472.50,55.21 C472.34,58.67 472.17,61.84 472.11,62.25 C471.97,63.18 470.56,63.23 469.67,62.33 Z" fill="rgb(253,253,253)"/>
</g>
</svg>