<?xml version="1.0" encoding="UTF-8"?>
<svg version="1.1" xmlns="http://www.w3.org/2000/svg" width="512" height="512">
<path d="M0 0 C2.23912569 3.35868854 2.25240929 4.45516383 2.26069641 8.38063049 C2.26778122 9.49779953 2.27486603 10.61496857 2.28216553 11.76599121 C2.27968811 12.9924939 2.27721069 14.21899658 2.2746582 15.48266602 C2.27976913 16.77401962 2.28488007 18.06537323 2.29014587 19.39585876 C2.30355368 22.94172271 2.304112 26.48748017 2.30158257 30.03336453 C2.30051288 32.99757778 2.3053968 35.96176949 2.310188 38.92597812 C2.32129186 45.92666128 2.32171733 52.92729081 2.31567383 59.92797852 C2.30964859 67.1334709 2.32190595 74.33876729 2.3432439 81.54422623 C2.36091186 87.73973345 2.36685263 93.93517861 2.36360615 100.13071007 C2.36179953 103.82657469 2.36436592 107.52229988 2.37832069 111.21814156 C2.3933341 115.34941228 2.38388372 119.48029042 2.37231445 123.61157227 C2.37995819 124.82390533 2.38760193 126.0362384 2.39547729 127.28530884 C2.31344197 140.58192207 -1.52356964 151.29044334 -10.5625 161.1875 C-23.02644401 172.95900267 -37.26238411 174.32359261 -53.453125 174.37109375 C-55.04254229 174.38007488 -56.63195879 174.38919696 -58.22137451 174.39845276 C-61.5362757 174.41485874 -64.85107679 174.42262884 -68.16601562 174.42553711 C-72.40866271 174.43094683 -76.65036944 174.46876772 -80.89274979 174.51428127 C-84.16818696 174.54402944 -87.44339546 174.55125998 -90.71895599 174.55226326 C-92.28345856 174.55646138 -93.84796206 174.56887946 -95.41233063 174.58978081 C-97.59753737 174.61668331 -99.78053177 174.61187881 -101.96582031 174.59936523 C-103.82705536 174.60697121 -103.82705536 174.60697121 -105.72589111 174.61473083 C-109.91203095 173.82876148 -111.41812907 172.32428955 -114 169 C-114.0625 165.875 -114.0625 165.875 -113 163 C-110.6200169 160.58831845 -109.24959834 160.0294883 -105.85287476 159.62818909 C-104.61284698 159.62915085 -103.37281921 159.63011261 -102.09521484 159.63110352 C-101.40843658 159.62733704 -100.72165833 159.62357056 -100.0140686 159.61968994 C-98.52560158 159.61326537 -97.03709352 159.61358013 -95.54862595 159.61987495 C-93.18453516 159.62900825 -90.82123383 159.61873387 -88.45718384 159.60325623 C-81.73693056 159.56323566 -75.01673937 159.56194242 -68.29638672 159.56420898 C-64.18078593 159.56426039 -60.06560755 159.54493418 -55.95012283 159.51487541 C-53.63576136 159.50413742 -51.3222376 159.51613201 -49.00790405 159.52870178 C-37.44525852 159.50067329 -29.17798672 157.18277222 -20 150 C-24.57679836 144.49291683 -29.46186361 139.4459434 -34.57568359 134.43774414 C-36.31447624 132.72525924 -38.05319139 131.01269563 -39.7918396 129.30006409 C-40.70573833 128.40163851 -41.61963707 127.50321293 -42.56122971 126.57756233 C-45.43142293 123.75269169 -48.29569041 120.92196666 -51.15713501 118.08824158 C-51.64184529 117.60827054 -52.12655556 117.12829949 -52.62595403 116.63378388 C-53.61619926 115.65313791 -54.606414 114.67246114 -55.59659886 113.69175422 C-62.24849643 107.10358698 -68.90415061 100.51953059 -75.58642578 93.9621582 C-80.1083003 89.52469313 -84.61581992 85.07319635 -89.10718787 80.60484976 C-91.48008562 78.24521478 -93.86139269 75.89590705 -96.25654221 73.55873299 C-98.92336621 70.95457204 -101.56433371 68.32660739 -104.20068359 65.69165039 C-104.99542084 64.9272464 -105.79015808 64.16284241 -106.60897827 63.37527466 C-112.46322837 57.44280791 -112.46322837 57.44280791 -112.58511353 52.5856781 C-112 49 -112 49 -110.4375 46.9375 C-107.00658545 45.61791748 -104.38704298 45.73166242 -101 47 C-97.7220032 49.41073941 -94.96100177 52.28121306 -92.12719727 55.19165039 C-91.26786087 56.05011063 -90.40852448 56.90857086 -89.52314758 57.79304504 C-87.17776722 60.14188213 -84.84646943 62.50320608 -82.5204823 64.87115407 C-80.08360376 67.34561644 -77.62964921 69.80302555 -75.17747498 72.26231384 C-70.54024448 76.91817072 -65.91851687 81.58910546 -61.30219835 86.26568741 C-56.04438853 91.59063111 -50.76947024 96.89848696 -45.49306405 102.20499432 C-34.64292864 113.11779471 -23.81441855 124.05179671 -13 135 C-12.19354705 131.45803633 -11.87357665 128.18915655 -11.86869812 124.55953979 C-11.86468994 123.47999023 -11.86068176 122.40044067 -11.85655212 121.28817749 C-11.85708084 120.11397247 -11.85760956 118.93976746 -11.8581543 117.72998047 C-11.85294266 115.86342804 -11.85294266 115.86342804 -11.84762573 113.95916748 C-11.8402772 111.25875207 -11.83460019 108.55838567 -11.83133507 105.85796738 C-11.82541179 101.58887461 -11.80886121 97.3198646 -11.78999329 93.05081177 C-11.78365675 91.58811002 -11.77733111 90.12540822 -11.77101612 88.66270638 C-11.76785031 87.93043902 -11.7646845 87.19817166 -11.76142275 86.44371438 C-11.71936082 76.50887727 -11.68634288 66.57408049 -11.67407227 56.63916016 C-11.66570213 49.93104739 -11.64325659 43.22314139 -11.6047166 36.51513207 C-11.58493162 32.96648519 -11.57255957 29.41814757 -11.57755089 25.86944199 C-11.58304391 21.91650075 -11.55784371 17.96408495 -11.5300293 14.01123047 C-11.53993141 12.24385025 -11.53993141 12.24385025 -11.55003357 10.44076538 C-11.53133209 8.82990051 -11.53133209 8.82990051 -11.51225281 7.18649292 C-11.50986445 6.25183638 -11.5074761 5.31717983 -11.50501537 4.35420036 C-11 2 -11 2 -9.1945467 0.16803169 C-5.87209673 -1.6003184 -3.55466065 -0.92157869 0 0 Z " fill="#000000" transform="translate(382,204)"/>
<path d="M0 0 C3.25469683 0.75108388 4.35191026 1.97572905 6.4375 4.5625 C6.93889666 7.26042938 6.93889666 7.26042938 6.94086456 10.41589355 C6.95129555 11.61967903 6.96172654 12.82346451 6.97247362 14.06372833 C6.9638252 15.40121192 6.95479857 16.73869311 6.94543457 18.07617188 C6.95004219 19.49571117 6.95639418 20.91524569 6.96434355 22.3347702 C6.98107936 26.2402811 6.97277145 30.14540226 6.96039867 34.05091476 C6.95136778 38.26093978 6.96530813 42.47089663 6.97631836 46.6809082 C6.9941292 54.93017082 6.99025221 63.17928807 6.9786678 71.42855644 C6.96964381 78.1313382 6.96840498 84.83407915 6.97276306 91.53686523 C6.97337599 92.48989265 6.97398893 93.44292006 6.97462043 94.4248271 C6.9758993 96.36072605 6.97719615 98.29662499 6.9785108 100.23252392 C6.98992411 118.39659483 6.97679112 136.56058507 6.95530933 154.72464275 C6.93743767 170.31907308 6.94054157 185.91338432 6.95898438 201.5078125 C6.98037784 219.60572522 6.9888254 237.70356719 6.97653532 255.80149078 C6.97526109 257.7303721 6.97400361 259.65925343 6.97276306 261.58813477 C6.97183741 263.01180146 6.97183741 263.01180146 6.97089306 264.46422911 C6.96743558 271.16098443 6.97327705 277.85769497 6.98268127 284.55444336 C6.99388572 292.71267129 6.99089405 300.87074523 6.9695583 309.02895546 C6.95902685 313.19351301 6.95496148 317.35781358 6.96815491 321.52236938 C6.98004164 325.33200348 6.97357848 329.14114148 6.9522447 332.95073032 C6.94776273 334.33155608 6.95008056 335.71242343 6.95974785 337.09322262 C6.97185212 338.96515534 6.95708488 340.83720486 6.94086456 342.70910645 C6.94021515 343.75040962 6.93956574 344.7917128 6.93889666 345.86457062 C6.30248269 349.28900497 5.20472271 350.49874451 2.4375 352.5625 C-1.125 352.5625 -1.125 352.5625 -4.5625 351.5625 C-7.66674839 348.44376618 -7.93906367 346.05412458 -7.94561005 341.7431345 C-7.95466669 340.54693251 -7.96372333 339.35073053 -7.97305441 338.11827999 C-7.96772648 336.80263764 -7.96239856 335.48699529 -7.95690918 334.13148499 C-7.9617968 332.72090955 -7.967986 331.31033813 -7.97536707 329.89977354 C-7.99180619 326.0190658 -7.98944066 322.13856069 -7.9839921 318.25783026 C-7.98132679 314.07437291 -7.99584426 309.89097018 -8.00808716 305.70753479 C-8.02916417 297.51010505 -8.03368073 289.31274601 -8.03189927 281.11529238 C-8.03059284 274.4539986 -8.03438969 267.79272692 -8.04182434 261.1314373 C-8.04392348 259.21436721 -8.04602108 257.29729712 -8.04811716 255.38022703 C-8.04916069 254.42611983 -8.05020422 253.47201264 -8.05127937 252.4889931 C-8.07019073 234.43555076 -8.06912873 216.38214904 -8.06231004 198.32870089 C-8.05673328 181.80382767 -8.07756406 165.27910941 -8.11067051 148.75427241 C-8.14438224 131.79601216 -8.15957903 114.8378262 -8.15495348 97.8795318 C-8.15270632 88.35492887 -8.15798798 78.83046921 -8.18284607 69.30589485 C-8.20382667 61.1978208 -8.20748348 53.08996856 -8.18854648 44.9818855 C-8.17936869 40.84347015 -8.17830753 36.70546873 -8.19890213 32.56708527 C-8.21753972 28.78013969 -8.21319105 24.99394914 -8.19035631 21.20703297 C-8.18415716 19.1848253 -8.20262039 17.16258875 -8.22189283 15.14046341 C-8.12559683 5.36178719 -8.12559683 5.36178719 -5.183815 2.25028133 C-2.5625 0.5625 -2.5625 0.5625 0 0 Z " fill="#000000" transform="translate(252.5625,84.4375)"/>
<path d="M0 0 C4.23491819 4.3792904 6.93677919 9.22665183 9.6875 14.625 C10.07744141 15.37523438 10.46738281 16.12546875 10.86914062 16.8984375 C12.29213742 19.64226721 13.71042111 22.38114637 15.02050781 25.1809082 C16.32835311 27.60981033 17.46478057 27.92073296 20 29 C22.48258137 30.30647578 24.9616133 31.61847923 27.4375 32.9375 C28.09298828 33.28490234 28.74847656 33.63230469 29.42382812 33.99023438 C39.1935857 39.1935857 39.1935857 39.1935857 42 42 C42.5 44.8125 42.5 44.8125 42 48 C37.0926208 52.76191866 31.5064034 55.46500036 25.36523438 58.34179688 C15.87838255 63.07243727 11.24037336 70.6525063 6.6875 79.9375 C5.84236206 81.63667206 4.9923511 83.33343197 4.13671875 85.02734375 C3.77280029 85.76718506 3.40888184 86.50702637 3.03393555 87.26928711 C2 89 2 89 0 90 C-3.25 90.625 -3.25 90.625 -7 90 C-10.60664072 86.46791516 -12.65684371 81.68129223 -14.94140625 77.23828125 C-15.28244385 76.58093994 -15.62348145 75.92359863 -15.97485352 75.24633789 C-16.64321634 73.94478923 -17.29686121 72.63554467 -17.93334961 71.31811523 C-22.07439832 63.11654118 -28.80573405 59.82899538 -36.75 55.875 C-38.45674139 55.02545608 -40.16005229 54.16897527 -41.859375 53.3046875 C-42.60670898 52.93327637 -43.35404297 52.56186523 -44.12402344 52.17919922 C-46 51 -46 51 -48 48 C-48.42239192 44.69126331 -48.6207138 42.81637359 -46.5625 40.109375 C-42.23472564 36.54687781 -37.12333253 34.38093423 -32.0859375 31.97460938 C-22.29125345 27.06956713 -18.21993517 20.13808921 -13.25 10.625 C-12.30190856 8.82286372 -11.34902872 7.02323577 -10.390625 5.2265625 C-9.97844727 4.43846191 -9.56626953 3.65036133 -9.14160156 2.83837891 C-6.91697514 -0.74404987 -3.91171916 -0.53690263 0 0 Z M-4 23 C-5.12482957 24.66795308 -6.1746808 26.38675195 -7.1875 28.125 C-11.89820241 35.72259251 -17.19336711 39.857705 -25 44 C-25 44.66 -25 45.32 -25 46 C-23.33204692 47.12482957 -21.61324805 48.1746808 -19.875 49.1875 C-12.27740749 53.89820241 -8.142295 59.19336711 -4 67 C-3.34 67 -2.68 67 -2 67 C-1.06284078 65.516662 -0.20092526 63.9855331 0.625 62.4375 C5.12382968 54.69863727 11.1545864 50.08615292 19 46 C19 45.34 19 44.68 19 44 C17.53622604 43.08514127 16.02605511 42.2441948 14.5 41.4375 C7.0225747 37.0995327 1.29799596 31.03886516 -2 23 C-2.66 23 -3.32 23 -4 23 Z " fill="#000000" transform="translate(355,111)"/>
<path d="M0 0 C3.58100358 2.74543607 6.79616697 5.83149254 10 9 C10.6614502 9.65307129 11.32290039 10.30614258 12.00439453 10.97900391 C16.69705203 15.62556252 21.35854805 20.30232472 26 25 C28.69382557 23.77857599 29.94398579 23.07146641 31.8125 20.6875 C34.47507574 17.41633552 37.18635488 14.86152008 41 13 C44.3125 13 44.3125 13 47 14 C49.52885213 17.7932782 49.58438127 19.49953138 49 24 C47.43274268 26.57690487 45.39998476 28.56783676 43.25195312 30.66967773 C42.64057495 31.29492844 42.02919678 31.92017914 41.39929199 32.56437683 C39.37733508 34.6221827 37.33078174 36.65327698 35.28125 38.68359375 C33.86456469 40.10753589 32.44884722 41.53244153 31.03405762 42.95826721 C28.06602032 45.94113097 25.0854444 48.91072204 22.09570312 51.87182617 C18.26784276 55.66541478 14.47480335 59.49177522 10.69074249 63.3289938 C7.77441491 66.27814622 4.83946568 69.2081888 1.89866638 72.13292122 C0.49245278 73.53631641 -0.90771667 74.94579532 -2.30162048 76.36141777 C-4.25467205 78.33955217 -6.23159753 80.29028493 -8.21679688 82.23608398 C-8.78648193 82.82353394 -9.35616699 83.41098389 -9.94311523 84.01623535 C-12.97312192 86.92982079 -15.01055377 88.36151484 -19.29504395 88.4969635 C-23 88 -23 88 -25.0625 85.8125 C-26.1418082 82.57457541 -25.93951105 81.23674714 -25 78 C-23.73364258 76.13085938 -23.73364258 76.13085938 -22.08203125 74.34375 C-21.45119629 73.65796875 -20.82036133 72.9721875 -20.17041016 72.265625 C-16.0519663 67.96650701 -11.89576959 63.71133015 -7.6875 59.5 C-6.78193359 58.5821875 -5.87636719 57.664375 -4.94335938 56.71875 C-4.07904297 55.8525 -3.21472656 54.98625 -2.32421875 54.09375 C-1.54135498 53.30677734 -0.75849121 52.51980469 0.0480957 51.70898438 C2 50 2 50 4 50 C4.226875 49.443125 4.45375 48.88625 4.6875 48.3125 C6.37377267 45.34144815 8.530354 43.35477875 11 41 C12.66910867 39.33577892 14.33612273 37.6694514 16 36 C12.62184272 32.59715414 9.24043717 29.19758261 5.85595703 25.80102539 C4.70466305 24.64469755 3.55426751 23.48747446 2.40478516 22.3293457 C0.75397424 20.66642789 -0.90002337 19.0067389 -2.5546875 17.34765625 C-3.06933563 16.82784683 -3.58398376 16.30803741 -4.11422729 15.7724762 C-7.17516758 12.7110546 -8.80291648 11.19153336 -13.125 10.5 C-20.02921458 11.3908664 -24.37603515 17.27055997 -29 22.18359375 C-29.66 22.88291016 -30.32 23.58222656 -31 24.30273438 C-32.34703683 25.74053834 -33.68020942 27.19144306 -35 28.65429688 C-39.8488088 33.72565843 -39.8488088 33.72565843 -43.20874023 34.52636719 C-46.43806876 34.59783026 -48.49436033 34.39838277 -51.0625 32.375 C-52.37247593 29.05639432 -52.08746152 27.39831724 -51 24 C-48.22567699 20.11594778 -45.33484649 17.37938194 -41.58984375 14.40625 C-39.75338642 12.78186514 -38.25603603 11.00869223 -36.6875 9.125 C-26.74213098 -2.49259921 -14.02645077 -8.73661183 0 0 Z " fill="#000000" transform="translate(184,264)"/>
<path d="M0 0 C7.32828896 6.27454806 11.3691837 13.94578155 12.875 23.4375 C13.54145896 33.14387658 10.90217545 41.31405598 5 49 C-1.3504841 56.11363241 -8.98361665 59.65378573 -18.375 60.9375 C-28.49808412 61.47929887 -36.64806324 58.54060764 -44.58203125 52.3125 C-51.7488565 45.45828264 -54.97223225 37.04229097 -55.375 27.25 C-55.18247939 17.62396944 -51.77274109 8.90910501 -45 2 C-31.8372633 -9.51412355 -14.20802619 -9.5522888 0 0 Z M-38 15 C-41.25223294 20.528796 -41.85556467 25.73569314 -41 32 C-39.13711559 38.61968361 -34.90305211 42.66800379 -29 46 C-23.48603792 47.75249958 -18.15476249 47.80429008 -12.875 45.4375 C-7.6423247 42.52244663 -4.26592927 38.47681814 -1.5625 33.1875 C-0.52898993 27.33094295 -0.95421484 22.09157033 -3.625 16.75 C-9.25166878 10.19804627 -9.25166878 10.19804627 -17 7 C-25.6685369 6.43157135 -31.72838208 8.72838208 -38 15 Z " fill="#000000" transform="translate(217,184)"/>
<path d="M0 0 C1.875 1.0625 1.875 1.0625 3 3 C4.25800368 10.06193781 4.18608188 17.0978778 4.18530273 24.24267578 C4.18749417 26.49400611 4.2057058 28.74484948 4.22460938 30.99609375 C4.2275433 32.44531085 4.2295281 33.89453024 4.23046875 35.34375 C4.23457764 36.64505859 4.23868652 37.94636719 4.24291992 39.28710938 C3.98915839 43.16570773 3.35740266 46.35916638 2 50 C-1 52 -1 52 -4.5625 51.8125 C-8 51 -8 51 -10 48 C-10.26069641 45.9510498 -10.26069641 45.9510498 -10.2746582 43.57617188 C-10.28419022 42.68514771 -10.29372223 41.79412354 -10.30354309 40.87609863 C-10.30263168 39.91667358 -10.30172028 38.95724854 -10.30078125 37.96875 C-10.30506638 36.98128784 -10.3093515 35.99382568 -10.31376648 34.97644043 C-10.31951012 32.88843554 -10.32000979 30.80041063 -10.31567383 28.71240234 C-10.3125122 25.51234964 -10.33597867 22.31321973 -10.36132812 19.11328125 C-10.36360089 17.08593867 -10.36430472 15.0585936 -10.36328125 13.03125 C-10.372491 12.07182495 -10.38170074 11.1123999 -10.39118958 10.12390137 C-10.38496078 9.2328772 -10.37873199 8.34185303 -10.37231445 7.42382812 C-10.37294388 6.64011841 -10.3735733 5.85640869 -10.3742218 5.0489502 C-9.33073486 -0.66438015 -4.98982986 -0.53462463 0 0 Z " fill="#000000" transform="translate(125,230)"/>
<path d="M0 0 C2.11558551 1.41039034 2.78754583 2.33270248 3.55273438 4.73608398 C4.09930811 7.50266602 4.19984924 10.15328912 4.28125 12.97265625 C4.31863281 14.11927734 4.35601562 15.26589844 4.39453125 16.44726562 C4.46495761 18.86132481 4.53526974 21.27538732 4.60546875 23.68945312 C4.64285156 24.83478516 4.68023437 25.98011719 4.71875 27.16015625 C4.74904297 28.20824463 4.77933594 29.25633301 4.81054688 30.33618164 C4.89663938 33.10346782 4.89663938 33.10346782 6 36 C6.37076101 39.53648959 6.63184205 42.81065025 4.9375 46 C1.86784865 47.58433618 -0.61681143 47.36248449 -4 47 C-8.18555926 43.73015049 -9.05330877 39.01683554 -10 34 C-10.35743546 29.38220414 -10.4334337 24.7933464 -10.39111328 20.16577148 C-10.37483927 18.04152051 -10.39113576 15.91911992 -10.41015625 13.79492188 C-10.40817687 12.43749582 -10.40433953 11.08007091 -10.3984375 9.72265625 C-10.39505371 8.50328369 -10.39166992 7.28391113 -10.38818359 6.02758789 C-10 3 -10 3 -8.69384766 1.10327148 C-5.82917561 -0.76260528 -3.30107828 -0.35368696 0 0 Z " fill="#000000" transform="translate(125,307)"/>
<path d="M0 0 C1.9375 1 1.9375 1 3 3 C3.37256103 7.32170799 3.11175084 10.8280122 2.0078125 15 C0.44251884 21.79668825 0.6085772 28.70198891 0.52148438 35.64453125 C0.49505859 36.67707031 0.46863281 37.70960938 0.44140625 38.7734375 C0.42795166 39.70591309 0.41449707 40.63838867 0.40063477 41.59912109 C-0.07142721 44.42804093 -0.69876175 45.33149201 -3 47 C-5.9375 47.4375 -5.9375 47.4375 -9 47 C-11.94477546 44.79898916 -12.89858015 43.61641555 -13.50170898 39.95068359 C-13.49985596 38.77844238 -13.49800293 37.60620117 -13.49609375 36.3984375 C-13.49673828 35.10292969 -13.49738281 33.80742187 -13.49804688 32.47265625 C-13.48765381 31.7986377 -13.47726074 31.12461914 -13.46655273 30.43017578 C-13.43787911 28.4018177 -13.44588951 26.37612516 -13.45898438 24.34765625 C-13.34879434 7.2088672 -13.34879434 7.2088672 -8.61499023 1.25927734 C-5.87288029 -0.87886372 -3.32529009 -0.35628108 0 0 Z " fill="#000000" transform="translate(128,158)"/>
<path d="M0 0 C7.44737985 1.61499665 14.95222348 1.4428633 22.54296875 1.4765625 C23.65800781 1.49976563 24.77304688 1.52296875 25.921875 1.546875 C26.92653809 1.55509277 27.93120117 1.56331055 28.96630859 1.57177734 C32.36109556 2.222553 33.55076453 3.38595633 35.6484375 6.0859375 C36.1484375 9.0859375 36.1484375 9.0859375 35.6484375 12.0859375 C33.56674421 14.75544217 32.37218121 15.9437508 29.01391602 16.60351562 C28.02834717 16.60802734 27.04277832 16.61253906 26.02734375 16.6171875 C24.38475586 16.62903076 24.38475586 16.62903076 22.70898438 16.64111328 C21.55462891 16.62290527 20.40027344 16.60469727 19.2109375 16.5859375 C18.03982422 16.57675293 16.86871094 16.56756836 15.66210938 16.55810547 C-3.27725826 16.16024174 -3.27725826 16.16024174 -9.3515625 10.0859375 C-10.50107508 6.81424785 -10.55515957 5.53385105 -9.1015625 2.3359375 C-6.28424984 -1.28632163 -4.10926212 -1.03095773 0 0 Z " fill="#000000" transform="translate(148.3515625,361.9140625)"/>
<path d="M0 0 C1.28390625 -0.02900391 2.5678125 -0.05800781 3.890625 -0.08789062 C5.12296875 -0.09626953 6.3553125 -0.10464844 7.625 -0.11328125 C8.75164062 -0.12786377 9.87828125 -0.14244629 11.0390625 -0.1574707 C14.66534413 0.41810583 15.85228438 1.37474119 18 4.3125 C18.0625 7.875 18.0625 7.875 17 11.3125 C13.39340976 14.07405822 10.63648305 14.70029749 6.1484375 14.7890625 C5.05015625 14.82 3.951875 14.8509375 2.8203125 14.8828125 C1.11488281 14.90988281 1.11488281 14.90988281 -0.625 14.9375 C-2.88810759 14.98847089 -5.15113882 15.04299271 -7.4140625 15.1015625 C-8.4138916 15.11912598 -9.4137207 15.13668945 -10.44384766 15.15478516 C-13.12111418 15.20997983 -13.12111418 15.20997983 -16 16.3125 C-22.88172043 17.03397069 -22.88172043 17.03397069 -25.9375 15.0625 C-27.19438465 12.99233705 -27.85656634 11.75087217 -28 9.3125 C-26.50690183 5.48643593 -25.25895571 4.444332 -21.5625 2.5625 C-14.30599637 0.01635837 -7.66917589 0.05774982 0 0 Z " fill="#000000" transform="translate(166,133.6875)"/>
<path d="M0 0 C1.4840332 -0.03577148 1.4840332 -0.03577148 2.99804688 -0.07226562 C7.81367318 -0.06255017 10.28314304 -0.0096015 14.25 2.90234375 C16.0625 5.5625 16.0625 5.5625 16.125 8.6875 C14.89793748 12.00778682 14.05087097 12.77291457 11.0625 14.5625 C7.41755246 15.17356039 3.75327805 15.02622646 0.0625 15 C-1.43410156 15.0299707 -1.43410156 15.0299707 -2.9609375 15.06054688 C-10.22548098 15.05567788 -10.22548098 15.05567788 -13.59375 12.72265625 C-15.44259586 9.75052905 -15.51032868 7.99947207 -14.9375 4.5625 C-11.45840856 -0.99396197 -5.87074102 -0.06476483 0 0 Z " fill="#000000" transform="translate(219.9375,363.4375)"/>
<path d="M0 0 C1.05960937 -0.00257813 2.11921875 -0.00515625 3.2109375 -0.0078125 C4.86996094 0.00378906 4.86996094 0.00378906 6.5625 0.015625 C7.66851562 0.00789062 8.77453125 0.00015625 9.9140625 -0.0078125 C11.50347656 -0.00394531 11.50347656 -0.00394531 13.125 0 C14.09566406 0.00225586 15.06632812 0.00451172 16.06640625 0.00683594 C18.5625 0.265625 18.5625 0.265625 21.5625 2.265625 C23.10373777 8.21039927 23.10373777 8.21039927 21.4375 11.45898438 C18.85202121 13.95020092 17.23956986 13.78167666 13.6875 13.796875 C11.96273438 13.80460938 11.96273438 13.80460938 10.203125 13.8125 C9.00171875 13.79703125 7.8003125 13.7815625 6.5625 13.765625 C5.36109375 13.78109375 4.1596875 13.7965625 2.921875 13.8125 C1.19710938 13.80476562 1.19710938 13.80476562 -0.5625 13.796875 C-2.14417969 13.79010742 -2.14417969 13.79010742 -3.7578125 13.78320312 C-6.4375 13.265625 -6.4375 13.265625 -8.3125 11.45898438 C-10.01860781 8.13266655 -9.35378118 5.79985239 -8.4375 2.265625 C-5.0803713 0.0275392 -3.92612636 0.00912446 0 0 Z " fill="#000000" transform="translate(277.4375,133.734375)"/>
<path d="M0 0 C1.05960938 -0.00386719 2.11921875 -0.00773438 3.2109375 -0.01171875 C4.86996094 0.00568359 4.86996094 0.00568359 6.5625 0.0234375 C8.22152344 0.00603516 8.22152344 0.00603516 9.9140625 -0.01171875 C10.97367188 -0.00785156 12.03328125 -0.00398437 13.125 0 C14.58099609 0.00507568 14.58099609 0.00507568 16.06640625 0.01025391 C18.96482693 0.46100595 19.83329646 1.07447161 21.5625 3.3984375 C22.52347201 6.28135352 22.78871077 7.77200768 21.75 10.6484375 C20.5625 12.3984375 20.5625 12.3984375 18.5625 13.3984375 C14.58890431 13.6671713 10.60666108 13.63001455 6.625 13.6484375 C4.95920898 13.679375 4.95920898 13.679375 3.25976562 13.7109375 C2.19564453 13.71609375 1.13152344 13.72125 0.03515625 13.7265625 C-1.43038696 13.74058105 -1.43038696 13.74058105 -2.92553711 13.75488281 C-5.4375 13.3984375 -5.4375 13.3984375 -7.25610352 12.09667969 C-9.23405778 9.25339598 -8.79506894 6.73574759 -8.4375 3.3984375 C-6.09450813 0.04536869 -3.93889178 0.0137312 0 0 Z " fill="#000000" transform="translate(213.4375,133.6015625)"/>
</svg>
