<?xml version="1.0" encoding="UTF-8"?>
<svg version="1.1" xmlns="http://www.w3.org/2000/svg" width="512" height="512">
<path d="M0 0 C0.96805573 -0.0087616 1.93611145 -0.01752319 2.9335022 -0.02655029 C6.1293029 -0.04853358 9.3237168 -0.0339947 12.51953125 -0.01708984 C14.74243434 -0.02045827 16.96533564 -0.0253111 19.18823242 -0.03158569 C23.84539335 -0.03895561 28.50207455 -0.02824718 33.15917969 -0.00488281 C39.12827234 0.02360442 45.09624095 0.00720117 51.06529236 -0.02274513 C55.65499335 -0.04081453 60.24442794 -0.03506158 64.83413696 -0.02210617 C67.03496433 -0.0187712 69.23581589 -0.0228624 71.43661499 -0.03450394 C74.51308234 -0.04720619 77.58773063 -0.027843 80.6640625 0 C82.02792587 -0.01518173 82.02792587 -0.01518173 83.41934204 -0.03067017 C87.78592347 0.04252883 89.76861526 0.23778031 93.39187622 2.86924744 C95.45919828 5.82903804 95.97651739 7.18198178 96.04248047 10.73754883 C96.07115204 11.72595261 96.09982361 12.71435638 96.12936401 13.73271179 C96.13179108 14.79109756 96.13421814 15.84948334 96.13671875 16.93994141 C96.15098907 18.04114822 96.1652594 19.14235504 96.17996216 20.27693176 C96.20087273 22.60600875 96.2084359 24.93523844 96.20361328 27.2644043 C96.20700462 30.80665303 96.28481728 34.34212119 96.3671875 37.88330078 C96.56169808 56.82120668 96.56169808 56.82120668 91.05859375 62.94775391 C89.51302392 64.21816668 87.93735265 65.45295511 86.33203125 66.64697266 C84.80157981 68.28572101 83.29796633 69.9502664 81.83203125 71.64697266 C78.83203125 74.98030599 75.83203125 78.31363932 72.83203125 81.64697266 C71.73181641 82.8709375 71.73181641 82.8709375 70.609375 84.11962891 C69.02220579 85.88103282 67.43072172 87.63855419 65.8359375 89.39306641 C65.03027344 90.28123047 64.22460938 91.16939453 63.39453125 92.08447266 C62.29818359 93.28910156 62.29818359 93.28910156 61.1796875 94.51806641 C58.03005326 98.14713757 57.08139777 100.15418798 57.06079578 104.89203739 C57.0512634 105.98562976 57.04173101 107.07922213 57.03190976 108.20595366 C57.03159637 109.4121517 57.03128297 110.61834974 57.03096008 111.86109924 C57.02290114 113.1388423 57.0148422 114.41658536 57.00653905 115.7330479 C56.98454543 119.2870593 56.97518683 122.84100976 56.96796858 126.39507782 C56.95811184 130.22555075 56.9369231 134.05596441 56.91746521 137.88639832 C56.87316779 147.14146046 56.84848086 156.39653547 56.82667735 165.65167394 C56.81822402 169.13694973 56.80862797 172.62222196 56.79902238 176.10749473 C56.75684625 191.47057782 56.72090623 206.83366368 56.70145893 222.19679356 C56.69661934 225.9576118 56.69173734 229.71842998 56.68676758 233.47924805 C56.68553779 234.41398148 56.684308 235.34871491 56.68304094 236.31177359 C56.66209269 251.44962088 56.6035427 266.58707871 56.52938507 281.72474933 C56.45386798 297.26708815 56.4123122 312.80922834 56.40389413 328.35175079 C56.3983173 337.07803981 56.37784618 345.80373897 56.31933022 354.5298481 C56.26958313 361.96269287 56.25058979 369.39481711 56.27149246 376.82781292 C56.28121499 380.6189168 56.27650658 384.40852243 56.23226547 388.1994133 C56.18463989 392.31530395 56.20721338 396.42789764 56.23628235 400.54396057 C56.19900535 402.32983506 56.19900535 402.32983506 56.16097528 404.15178782 C56.29709259 412.05357237 58.29735657 415.92316192 63.96235055 421.43184417 C65.1353425 422.52833277 65.1353425 422.52833277 66.33203125 423.64697266 C67.84651824 425.30048617 69.34844319 426.96568023 70.83203125 428.64697266 C71.57453125 429.47197266 72.31703125 430.29697266 73.08203125 431.14697266 C79.83203125 438.64697266 79.83203125 438.64697266 82.0546875 441.11962891 C83.64185671 442.88103282 85.23334078 444.63855419 86.828125 446.39306641 C87.63378906 447.28123047 88.43945312 448.16939453 89.26953125 449.08447266 C90.00042969 449.88755859 90.73132813 450.69064453 91.484375 451.51806641 C94.51979671 455.01553963 95.58343133 457.01912994 95.63842773 461.58984375 C95.65441513 462.59453705 95.67040253 463.59923035 95.68687439 464.6343689 C95.69223709 465.71876251 95.69759979 466.80315613 95.703125 467.92041016 C95.71215347 469.03630524 95.72118195 470.15220032 95.73048401 471.3019104 C95.74499995 473.66397411 95.75387657 476.02607816 95.75756836 478.38818359 C95.76946279 482.00117798 95.81863668 485.61246394 95.86914062 489.22509766 C95.87860483 491.51936015 95.88583987 493.81363314 95.890625 496.10791016 C95.91015732 497.18825531 95.92968964 498.26860046 95.94981384 499.38168335 C95.94373611 500.39268097 95.93765839 501.40367859 95.93139648 502.4453125 C95.93646713 503.33117035 95.94153778 504.2170282 95.94676208 505.12973022 C95.00985138 508.96625711 93.52199008 510.34266645 90.33203125 512.64697266 C87.10558167 513.36608692 83.95917158 513.33062455 80.6640625 513.29394531 C79.69600677 513.30270691 78.72795105 513.31146851 77.7305603 513.32049561 C74.5347596 513.34247889 71.3403457 513.32794001 68.14453125 513.31103516 C65.92162816 513.31440358 63.69872686 513.31925642 61.47583008 513.32553101 C56.81866915 513.33290092 52.16198795 513.32219249 47.50488281 513.29882812 C41.53579016 513.27034089 35.56782155 513.28674414 29.59877014 513.31669044 C25.00906915 513.33475984 20.41963456 513.3290069 15.82992554 513.31605148 C13.62909817 513.31271651 11.42824661 513.31680771 9.22744751 513.32844925 C6.15098016 513.3411515 3.07633187 513.32178832 0 513.29394531 C-0.90924225 513.30406647 -1.8184845 513.31418762 -2.75527954 513.32461548 C-7.12186097 513.25141648 -9.10455276 513.056165 -12.72781372 510.42469788 C-14.79513578 507.46490728 -15.31245489 506.11196353 -15.37841797 502.55639648 C-15.40708954 501.56799271 -15.43576111 500.57958893 -15.46530151 499.56123352 C-15.46772858 498.50284775 -15.47015564 497.44446198 -15.47265625 496.35400391 C-15.49406174 494.70219368 -15.49406174 494.70219368 -15.51589966 493.01701355 C-15.53681023 490.68793656 -15.5443734 488.35870688 -15.53955078 486.02954102 C-15.54294212 482.48729228 -15.62075478 478.95182412 -15.703125 475.41064453 C-15.89763558 456.47273863 -15.89763558 456.47273863 -10.39453125 450.34619141 C-8.84896142 449.07577863 -7.27329015 447.84099021 -5.66796875 446.64697266 C-4.13751731 445.0082243 -2.63390383 443.34367892 -1.16796875 441.64697266 C1.83203125 438.31363932 4.83203125 434.98030599 7.83203125 431.64697266 C8.93417969 430.42107422 8.93417969 430.42107422 10.05859375 429.17041016 C11.63330395 427.42253595 13.21168135 425.67796128 14.79296875 423.93603516 C15.98792969 422.61732422 15.98792969 422.61732422 17.20703125 421.27197266 C17.92632812 420.48048828 18.645625 419.68900391 19.38671875 418.87353516 C20.02867187 418.13876953 20.670625 417.40400391 21.33203125 416.64697266 C21.858906 416.05100769 22.38578076 415.45504272 22.92862141 414.8410182 C24.66131678 412.13217831 24.71547445 410.51599227 24.73190117 407.31568146 C24.75103642 405.68460662 24.75103642 405.68460662 24.77055824 404.02058077 C24.76932303 402.8264417 24.76808782 401.63230264 24.76681519 400.40197754 C24.77713968 399.13295829 24.78746418 397.86393905 24.79810154 396.55646467 C24.82619194 393.03135654 24.83543157 389.50641166 24.84147763 385.98120594 C24.8511403 382.17999612 24.87784442 378.37889868 24.90203857 374.57775879 C24.95655629 365.3957886 24.98220978 356.21382112 25.00488967 347.03172612 C25.01623675 342.70579084 25.03075986 338.37986642 25.04498672 334.05393982 C25.09120649 319.66962784 25.13049069 305.28532524 25.1483593 290.90094757 C25.15306905 287.16850276 25.15778874 283.43605797 25.16259766 279.70361328 C25.16378657 278.7759512 25.16497548 277.84828913 25.16620041 276.89251608 C25.18673836 261.87237728 25.25484202 246.8528551 25.34311853 231.83297688 C25.43304968 216.40584713 25.48146457 200.97902933 25.4890157 185.55163527 C25.49425712 176.89224833 25.51740902 168.23373261 25.58675766 159.57460022 C25.64567921 152.19808942 25.66674148 144.82267661 25.63908599 137.44596153 C25.62611887 133.68470219 25.63063094 129.92569094 25.68366623 126.16473389 C26.70053423 109.37978929 26.70053423 109.37978929 20.47719491 94.53161955 C18.26678893 92.32352321 15.85658138 90.48079777 13.33203125 88.64697266 C12.12701798 87.34819173 10.94985268 86.02151409 9.83203125 84.64697266 C6.8935873 81.2564604 3.87073846 77.94742584 0.83203125 74.64697266 C-7.87744846 65.17911649 -7.87744846 65.17911649 -11.66796875 60.64697266 C-12.44195007 59.76023109 -12.44195007 59.76023109 -13.23156738 58.85557556 C-14.95067344 56.21228746 -15.05800381 54.72170227 -15.08789062 51.59057617 C-15.10380249 50.5859584 -15.11971436 49.58134064 -15.1361084 48.54627991 C-15.13641052 46.92743141 -15.13641052 46.92743141 -15.13671875 45.27587891 C-15.14433228 44.16139877 -15.1519458 43.04691864 -15.15979004 41.89866638 C-15.1705918 39.54257446 -15.17344386 37.18643465 -15.16894531 34.83032227 C-15.16797323 31.22607554 -15.2095925 27.62395875 -15.25390625 24.02001953 C-15.25911339 21.73031043 -15.26180144 19.44059393 -15.26171875 17.15087891 C-15.27811401 16.07367081 -15.29450928 14.99646271 -15.31140137 13.88661194 C-15.30209595 12.87884201 -15.29279053 11.87107208 -15.28320312 10.83276367 C-15.28525757 9.94992203 -15.28731201 9.06708038 -15.28942871 8.15748596 C-13.28011483 0.04045581 -7.01153747 -0.07804835 0 0 Z " fill="#FFFFFF" transform="translate(155.66796875,-0.64697265625)"/>
<path d="M0 0 C89.43 0 178.86 0 271 0 C271 30.03 271 60.06 271 91 C181.57 91 92.14 91 0 91 C0 60.97 0 30.94 0 0 Z " fill="#FFFFFF" transform="translate(241,210)"/>
<path d="M0 0 C50.16 0 100.32 0 152 0 C152 29.7 152 59.4 152 90 C101.84 90 51.68 90 0 90 C0 60.3 0 30.6 0 0 Z " fill="#FFFFFF" transform="translate(0,211)"/>
<path d="M0 0 C23.43 0 46.86 0 71 0 C71 20.13 71 40.26 71 61 C47.57 61 24.14 61 0 61 C0 40.87 0 20.74 0 0 Z " fill="#FFFFFF" transform="translate(241,330)"/>
<path d="M0 0 C23.43 0 46.86 0 71 0 C71.0825 8.45625 71.165 16.9125 71.25 25.625 C71.28641602 28.2851416 71.32283203 30.9452832 71.36035156 33.68603516 C71.3720383 35.80370273 71.38223016 37.92137931 71.390625 40.0390625 C71.41108887 41.13114014 71.43155273 42.22321777 71.45263672 43.34838867 C71.45539678 49.37223296 71.32227685 53.3908627 67 58 C63.13672956 60.79854447 60.48021451 61.36953288 55.7409668 61.34057617 C53.87960335 61.34023628 53.87960335 61.34023628 51.9806366 61.33988953 C50.63682693 61.32457212 49.29302099 61.30892417 47.94921875 61.29296875 C46.5663143 61.28736898 45.18340388 61.28310068 43.80049133 61.28010559 C40.17210269 61.26868664 36.54407801 61.2392455 32.91583252 61.20599365 C29.20891328 61.17522873 25.50193312 61.16142188 21.79492188 61.14648438 C14.52962715 61.11596648 7.26533007 61.05724071 0 61 C0 40.87 0 20.74 0 0 Z " fill="#FFFFFF" transform="translate(441,330)"/>
<path d="M0 0 C23.1 0 46.2 0 70 0 C70 20.13 70 40.26 70 61 C46.9 61 23.8 61 0 61 C0 40.87 0 20.74 0 0 Z " fill="#FFFFFF" transform="translate(341,330)"/>
<path d="M0 0 C23.43 0 46.86 0 71 0 C71 19.47 71 38.94 71 59 C47.57 59 24.14 59 0 59 C0 39.53 0 20.06 0 0 Z " fill="#FFFFFF" transform="translate(241,121)"/>
<path d="M0 0 C7.97340222 -0.08397966 15.94519464 -0.16410406 23.9186554 -0.20700073 C27.63199871 -0.22808735 31.34497436 -0.25624572 35.05810547 -0.30175781 C38.63725786 -0.34535112 42.21605464 -0.36916523 45.79545212 -0.37950897 C47.15818247 -0.38687635 48.52089427 -0.40126338 49.88347244 -0.42292023 C61.8897562 -0.60608763 61.8897562 -0.60608763 65.69677734 1.71191406 C69.80049831 5.78866548 71.14118402 8.36379883 71.34057617 14.1574707 C71.33982948 16.24696768 71.32339161 18.33650563 71.29296875 20.42578125 C71.28994751 21.40365601 71.28692627 22.38153076 71.28381348 23.38903809 C71.26815669 27.03029993 71.22627271 30.67141093 71.1875 34.3125 C71.125625 42.459375 71.06375 50.60625 71 59 C47.57 59 24.14 59 0 59 C0 39.53 0 20.06 0 0 Z " fill="#FFFFFF" transform="translate(441,121)"/>
<path d="M0 0 C23.1 0 46.2 0 70 0 C70 19.47 70 38.94 70 59 C46.9 59 23.8 59 0 59 C0 39.53 0 20.06 0 0 Z " fill="#FFFFFF" transform="translate(341,121)"/>
<path d="M0 0 C20.46 0 40.92 0 62 0 C62 20.13 62 40.26 62 61 C53.37875 61.0825 44.7575 61.165 35.875 61.25 C31.80647705 61.30462402 31.80647705 61.30462402 27.65576172 61.36035156 C25.49707836 61.37203805 23.33838617 61.38222997 21.1796875 61.390625 C20.06601807 61.41108887 18.95234863 61.43155273 17.80493164 61.45263672 C11.73768215 61.45536419 7.63395441 61.3700363 3 57 C0.47361426 53.42170032 -0.37244746 51.02530209 -0.34057617 46.65893555 C-0.34021362 45.60379761 -0.33985107 44.54865967 -0.33947754 43.46154785 C-0.32412964 42.36435425 -0.30878174 41.26716064 -0.29296875 40.13671875 C-0.28994751 39.11952759 -0.28692627 38.10233643 -0.28381348 37.05432129 C-0.26815219 33.26527721 -0.22626821 29.47637811 -0.1875 25.6875 C-0.125625 17.210625 -0.06375 8.73375 0 0 Z " fill="#FFFFFF" transform="translate(0,330)"/>
<path d="M0 0 C9.879375 -0.020625 19.75875 -0.04125 29.9375 -0.0625 C34.62247681 -0.07615601 34.62247681 -0.07615601 39.40209961 -0.09008789 C41.86051388 -0.09300678 44.31892864 -0.0955554 46.77734375 -0.09765625 C48.0677356 -0.10277222 49.35812744 -0.10788818 50.68762207 -0.11315918 C51.90566528 -0.11328003 53.1237085 -0.11340088 54.37866211 -0.11352539 C55.97417152 -0.11685631 55.97417152 -0.11685631 57.60191345 -0.12025452 C60 0 60 0 61 1 C61.09386381 2.8718094 61.11743804 4.7471806 61.11352539 6.62133789 C61.11340454 7.8393811 61.11328369 9.05742432 61.11315918 10.31237793 C61.10804321 11.60276978 61.10292725 12.89316162 61.09765625 14.22265625 C61.09664917 15.40114136 61.09564209 16.57962646 61.09460449 17.79382324 C61.08935316 22.21672532 61.07539205 26.63961359 61.0625 31.0625 C61.0315625 45.8815625 61.0315625 45.8815625 61 61 C40.87 61 20.74 61 0 61 C0 40.87 0 20.74 0 0 Z " fill="#FFFFFF" transform="translate(91,330)"/>
<path d="M0 0 C1.07544067 0.00036255 2.15088135 0.0007251 3.25891113 0.00109863 C4.37769653 0.01644653 5.49648193 0.03179443 6.64916992 0.04760742 C7.68601929 0.05062866 8.72286865 0.0536499 9.7911377 0.0567627 C13.65407301 0.0724261 17.51686612 0.11431008 21.37963867 0.15307617 C30.02151367 0.21495117 38.66338867 0.27682617 47.56713867 0.34057617 C47.56713867 20.14057617 47.56713867 39.94057617 47.56713867 60.34057617 C27.10713867 60.34057617 6.64713867 60.34057617 -14.43286133 60.34057617 C-14.51536133 52.04932617 -14.59786133 43.75807617 -14.68286133 35.21557617 C-14.71927734 32.6076416 -14.75569336 29.99970703 -14.79321289 27.31274414 C-14.80489988 25.23609235 -14.81509168 23.15943138 -14.82348633 21.08276367 C-14.8439502 20.01227783 -14.86441406 18.94179199 -14.88549805 17.83886719 C-14.88829151 11.85946847 -14.70698053 7.92389862 -10.43286133 3.34057617 C-6.82529368 0.7845058 -4.40521172 -0.0315409 0 0 Z " fill="#FFFFFF" transform="translate(14.432861328125,120.659423828125)"/>
<path d="M0 0 C20.13 0 40.26 0 61 0 C61 19.8 61 39.6 61 60 C40.87 60 20.74 60 0 60 C0 40.2 0 20.4 0 0 Z " fill="#FFFFFF" transform="translate(91,121)"/>
</svg>
